<svg xmlns="http://www.w3.org/2000/svg" xmlns:xlink="http://www.w3.org/1999/xlink" width="524" height="524" fill="none" xmlns:v="https://vecta.io/nano"><path d="M263.136 24.456L262.201.267a.29.29 0 0 0-.267-.267.29.29 0 0 0-.268.267l-.935 24.189-.668 24.189c-.268 8.018-.802 16.17-.535 24.189a217.77 217.77 0 0 0 .802 12.963c.134 2.539.401 5.212.935 7.751.134 1.203.268 2.406.535 3.475 0 .134.134.134.267.267a.29.29 0 0 0 .268-.267c.133-1.203.401-2.406.534-3.475.401-2.539.668-5.212.936-7.751.401-4.276.668-8.553.801-12.963.401-8.018-.267-16.17-.534-24.189l-.936-24.189z" fill="url(#A)"/><path d="M264.472 448.895c-.267-8.018-.801-16.17-2.138-24.189 0-.133-.133-.133-.267-.267-.134 0-.267.134-.267.267-1.337 8.019-1.871 16.171-2.139 24.189-.133 2.272-.133 4.677-.133 6.949 0 6.415.401 12.963.534 19.378l.669 24.189.935 24.188a.29.29 0 0 0 .267.268.29.29 0 0 0 .268-.268l.935-24.188.668-24.189.535-19.378c.133-2.272.133-4.544.133-6.949z" fill="url(#B)"/><path d="M364.168 435.531c-2.807-5.212-5.346-10.692-8.553-15.77s-6.682-10.023-10.558-14.567c0 0-.133-.133-.267 0-.134 0-.134.134-.134.268 2.005 5.746 4.544 11.225 7.35 16.437 2.673 5.346 6.148 10.291 9.355 15.369l9.489 15.235 9.755 15.101c0 .134.134.134.268.134s.133-.134.133-.268l-8.285-15.903-8.553-16.036z" fill="url(#C)"/><path d="M159.833 88.336c2.806 5.212 5.346 10.691 8.553 15.77s6.682 10.023 10.557 14.567c0 0 .134.133.268 0 .133 0 .133-.134.133-.268-2.004-5.746-4.543-11.225-7.35-16.437-2.673-5.346-6.147-10.29-9.355-15.369l-9.488-15.235-9.756-15.101c0-.134-.133-.134-.267-.134s-.134.134-.134.267l8.286 15.903 8.553 16.037z" fill="url(#D)"/><path d="M452.503 370.716l-15.235-9.489c-5.078-3.207-10.023-6.548-15.368-9.354s-10.691-5.346-16.438-7.351h-.267c-.134.134-.134.268 0 .268 4.544 4.009 9.622 7.35 14.567 10.557 5.078 3.208 10.424 5.747 15.769 8.553l15.903 8.419 15.903 8.286c.134 0 .268 0 .268-.134v-.267l-15.102-9.488z" fill="url(#E)"/><path d="M71.497 153.151l15.235 9.488c5.078 3.208 10.023 6.549 15.369 9.355s10.691 5.346 16.437 7.35h.268c.133-.133.133-.267 0-.267-4.544-4.009-9.489-7.35-14.567-10.557s-10.424-5.747-15.77-8.553l-15.903-8.42-15.903-8.285c-.134 0-.267 0-.267.133v.268l15.101 9.488z" fill="url(#F)"/><path d="M435.531 159.833c-5.212 2.806-10.692 5.346-15.77 8.553s-10.023 6.682-14.567 10.557c0 0-.133.134 0 .268 0 .133.134.133.268.133 5.746-2.004 11.225-4.543 16.437-7.35 5.346-2.673 10.291-6.147 15.369-9.355l15.235-9.488 15.101-9.756c.134 0 .134-.133.134-.267s-.134-.134-.268-.134l-15.903 8.286-16.036 8.553z" fill="url(#G)"/><path d="M88.336 364.168c5.212-2.807 10.691-5.346 15.77-8.553s10.023-6.682 14.567-10.558c0 0 .133-.133 0-.267 0-.134-.134-.134-.268-.134-5.746 2.005-11.225 4.544-16.437 7.35-5.346 2.673-10.29 6.148-15.369 9.355l-15.235 9.489-15.101 9.755c-.134 0-.134.134-.134.268s.134.133.267.133l15.903-8.285 16.037-8.553z" fill="url(#H)"/><path d="M351.873 101.967c-2.807 5.345-5.346 10.691-7.351 16.438v.267c.134.133.268.133.268 0 4.009-4.544 7.35-9.489 10.557-14.567s5.747-10.424 8.553-15.769l8.419-15.903 8.286-15.903c0-.134 0-.267-.134-.267h-.267l-9.755 15.101-9.489 15.235c-2.94 5.212-6.281 10.157-9.087 15.369z" fill="url(#I)"/><path d="M172.128 421.9c2.806-5.346 5.346-10.691 7.35-16.438v-.267c-.133-.134-.267-.134-.267 0-4.009 4.544-7.35 9.488-10.558 14.567s-5.746 10.424-8.553 15.769l-8.419 15.903-8.285 15.903c0 .134 0 .268.133.268h.267l9.756-15.102 9.488-15.235c2.807-5.078 6.282-10.023 9.088-15.368z" fill="url(#J)"/><path d="M48.645 263.938c8.018.267 16.17.801 24.189.534s16.17-.802 24.189-2.138c.134 0 .134-.134.267-.267a.29.29 0 0 0-.267-.268c-8.018-1.336-16.17-1.871-24.189-2.138-8.018-.401-16.17.267-24.189.535l-24.189.668-24.189.935a.29.29 0 0 0-.267.268.29.29 0 0 0 .267.267l24.189.935 24.189.669z" fill="url(#K)"/><path d="M523.733 261.666l-24.189-.935-24.189-.668c-8.018-.268-16.17-.802-24.189-.535s-16.17.802-24.188 2.138c-.134 0-.134.134-.268.268a.29.29 0 0 0 .268.267c8.018 1.336 16.17 1.871 24.188 2.138 8.019.401 16.171-.267 24.189-.534l24.189-.669 24.189-.935a.29.29 0 0 0 .267-.267c0-.134-.134-.134-.267-.268z" fill="url(#L)"/><path d="M187.23 62.142c2.539 7.617 4.677 15.502 7.884 22.852 1.604 4.009 3.341 7.885 5.212 11.894 1.069 2.406 2.139 4.677 3.475 6.949.534 1.069 1.069 2.138 1.737 3.207 0 .134.134.134.268.134s.267-.134.133-.267c-.267-1.203-.534-2.272-.668-3.475-.535-2.539-1.069-5.078-1.871-7.617-1.069-4.143-2.406-8.286-3.608-12.428-2.406-7.751-5.747-15.101-8.687-22.585l-8.954-22.451-9.221-22.451c0-.134-.133-.134-.267-.134s-.134.134-.134.267l7.35 23.12 7.351 22.986z" fill="url(#M)"/><path d="M336.772 461.724c-2.005-6.148-3.876-12.295-6.148-18.442l-2.405-6.549c-3.074-7.484-6.281-14.834-10.291-22.05 0-.134-.133-.134-.267-.134s-.267.134-.133.267c1.47 8.019 3.741 15.77 6.147 23.521.668 2.272 1.47 4.41 2.272 6.548 2.138 6.014 4.811 12.028 7.216 18.042l8.954 22.451 9.221 22.451c0 .134.134.134.268.134s.133-.134.133-.267l-7.35-23.12-7.617-22.852z" fill="url(#N)"/><path d="M401.186 381.541c4.41 4.143 9.355 7.484 14.032 11.226l14.166 11.092 14.299 10.824h.268c.133-.133.133-.267 0-.267l-13.231-12.161-13.364-12.028c-4.41-4.009-8.686-8.285-13.497-11.893s-9.622-7.083-14.968-10.023h-.267c-.134.133-.134.267 0 .267 3.875 4.677 8.152 8.954 12.562 12.963z" fill="url(#O)"/><path d="M135.243 155.422c-3.876-4.677-8.152-8.954-12.562-12.963-4.41-4.143-9.355-7.484-14.032-11.225l-14.166-11.093-14.299-10.824h-.267c-.134.133-.134.267 0 .267l13.23 12.161 13.364 12.028c4.41 4.009 8.687 8.285 13.498 11.894s9.622 7.082 14.968 10.023h.267c.133 0 .133-.134 0-.268z" fill="url(#P)"/><path d="M495.935 303.227c0-.133 0-.267-.133-.267l-17.507-4.009-17.507-3.742c-5.88-1.203-11.626-2.806-17.64-3.475-5.88-.801-11.894-1.336-18.041-1.202-.134 0-.134 0-.134.133s0 .268.134.268c5.746 2.138 11.493 3.608 17.373 4.944s11.76 1.871 17.774 2.673l17.774 2.539 17.774 2.272.133-.134z" fill="url(#Q)"/><path d="M28.065 220.772c0 .133 0 .267.134.267l17.507 4.009 17.507 3.742c5.88 1.203 11.627 2.806 17.64 3.475 5.88.802 11.894 1.336 18.041 1.202.134 0 .134 0 .134-.133s0-.268-.134-.268c-5.747-2.138-11.493-3.608-17.373-4.944s-11.76-1.871-17.774-2.673l-17.774-2.539-17.64-2.406a.29.29 0 0 0-.267.268z" fill="url(#R)"/><path d="M378.334 120.008c-3.609 4.811-7.083 9.622-10.023 14.968v.267c.133.133.267.133.267 0 4.677-3.876 8.954-8.152 12.963-12.562 4.143-4.41 7.484-9.355 11.226-14.032l11.092-14.166 10.824-14.299v-.267c-.133-.134-.267-.134-.267 0l-12.161 13.23-12.028 13.364c-4.009 4.544-8.285 8.821-11.893 13.498z" fill="url(#S)"/><path d="M145.667 403.859c3.608-4.811 7.082-9.622 10.023-14.968v-.267c-.134-.134-.268-.134-.268 0-4.677 3.875-8.954 8.152-12.963 12.562-4.143 4.41-7.484 9.355-11.225 14.032l-11.093 14.166-10.824 14.299v.268c.133.133.267.133.267 0l12.161-13.231 12.028-13.364c4.009-4.41 8.285-8.686 11.894-13.497z" fill="url(#T)"/><path d="M302.96 28.198l-4.009 17.507-3.608 17.64c-1.203 5.88-2.807 11.627-3.475 17.64-.802 5.88-1.336 11.894-1.203 18.041 0 .134 0 .134.134.134s.267 0 .267-.134c2.139-5.746 3.609-11.493 4.945-17.373s1.871-11.76 2.673-17.774l2.539-17.774 2.272-17.774c0-.134 0-.267-.134-.267-.267 0-.401 0-.401.134z" fill="url(#U)"/><path d="M233.068 424.974c-2.139 5.746-3.609 11.493-4.945 17.373s-1.871 11.76-2.673 17.774l-2.539 17.774-2.272 17.774c0 .133 0 .267.134.267s.267 0 .267-.134l4.009-17.506 3.742-17.507c1.203-5.88 2.807-11.627 3.475-17.641.802-5.88 1.336-11.893 1.203-18.041 0-.133 0-.133-.134-.133-.134-.134-.267-.134-.267 0z" fill="url(#V)"/><path d="M85.128 329.02c7.484-3.074 14.834-6.281 22.051-10.29.134 0 .134-.134.134-.268s-.134-.267-.268-.133c-8.018 1.47-15.769 3.742-23.52 6.147s-15.101 5.747-22.585 8.687l-22.585 8.954-22.451 9.221c-.134 0-.134.133-.134.267s.134.134.267.134l23.12-7.351 22.986-7.617c7.751-2.539 15.502-4.677 22.986-7.751z" fill="url(#W)"/><path d="M438.872 194.979c-7.484 3.074-14.834 6.282-22.05 10.291-.134 0-.134.133-.134.267s.134.267.267.134c8.019-1.47 15.77-3.742 23.521-6.148s15.101-5.746 22.585-8.686l22.451-8.954 22.452-9.221c.133 0 .133-.134.133-.268s-.133-.133-.267-.133l-23.12 7.35-22.986 7.617c-7.617 2.54-15.368 4.678-22.852 7.751z" fill="url(#X)"/><path d="M318.864 103.437l-.668 3.475c0 .133 0 .267.133.267.134.134.267 0 .401-.134.535-1.069 1.069-2.138 1.737-3.073 1.337-2.272 2.406-4.678 3.475-6.95 1.871-3.876 3.475-7.885 5.212-11.894 3.074-7.484 5.212-15.235 7.885-22.852l7.617-22.986 7.35-23.12c0-.134 0-.267-.133-.267s-.268 0-.268.134l-9.488 22.318-8.954 22.451c-2.94 7.484-6.281 14.834-8.686 22.585a216.95 216.95 0 0 0-3.609 12.429c-.935 2.539-1.47 5.078-2.004 7.617z" fill="url(#Y)"/><path d="M206.473 414.95c0-.134 0-.267-.133-.267-.134-.134-.268 0-.401.133-4.009 7.083-7.217 14.567-10.291 22.051a54.7 54.7 0 0 0-2.405 6.548c-2.272 6.014-4.009 12.295-6.147 18.442l-7.618 22.986-7.35 23.12c0 .134 0 .267.134.267s.267 0 .267-.133l9.221-22.452 8.954-22.451 7.216-18.042c.802-2.138 1.604-4.41 2.272-6.548 2.539-7.751 4.811-15.502 6.281-23.654z" fill="url(#Z)"/><path d="M106.644 390.093L93.28 402.121l-13.23 12.161c-.134.134-.134.134 0 .268s.267.133.267 0l14.299-10.825 14.165-11.092c4.678-3.742 9.622-7.083 14.033-11.226 4.41-4.009 8.686-8.286 12.562-12.963v-.267c0-.134-.134-.134-.268-.134-5.345 2.94-10.156 6.415-14.967 10.023-4.811 3.875-9.088 8.152-13.498 12.027z" fill="url(#a)"/><path d="M403.858 145.667c4.811-3.608 8.954-7.885 13.498-11.894l13.364-12.027 13.23-12.161c.134-.134.134-.134 0-.268s-.267-.133-.267 0l-14.3 10.825-14.165 11.092c-4.678 3.742-9.622 7.083-14.033 11.226-4.41 4.009-8.686 8.285-12.562 12.963v.267c0 .134.134.134.268.134 5.345-3.074 10.29-6.549 14.967-10.157z" fill="url(#b)"/><path d="M63.345 295.343l-17.507 3.742-17.507 4.009c-.134 0-.134.134-.134.268s.134.133.267.133l17.774-2.272 17.774-2.539c5.88-.802 11.894-1.336 17.774-2.673s11.627-2.806 17.373-4.944c.134 0 .134-.134.134-.134a.29.29 0 0 0-.267-.267c-6.147-.134-12.028.534-18.041 1.203s-11.76 2.272-17.64 3.474z" fill="url(#c)"/><path d="M459.987 225.315c-5.88.802-11.894 1.337-17.774 2.673s-11.627 2.807-17.373 4.945c-.134 0-.134.133-.134.133a.29.29 0 0 0 .268.268c6.147.133 12.027-.535 18.041-1.203 5.88-.668 11.76-2.272 17.64-3.475l17.507-3.742 17.507-4.009c.133 0 .133-.133.133-.267s-.133-.134-.267-.134l-17.774 2.272-17.774 2.539z" fill="url(#d)"/><path d="M131.234 108.782c3.742 4.678 7.083 9.622 11.226 14.033 4.009 4.41 8.285 8.686 12.963 12.562h.267c.134 0 .134-.134.134-.268-2.94-5.345-6.415-10.156-10.023-14.967s-7.885-8.954-11.894-13.498L121.879 93.28l-12.294-13.23c-.134-.134-.134-.134-.268 0s-.133.267 0 .267l10.825 14.299 11.092 14.165z" fill="url(#e)"/><path d="M392.766 415.218c-3.742-4.678-7.082-9.622-11.225-14.033-4.009-4.41-8.286-8.686-12.963-12.562h-.268c-.133 0-.133.134-.133.268 2.94 5.345 6.414 10.156 10.023 14.967s7.884 8.954 11.894 13.498l12.027 13.364 12.161 13.23c.134.134.134.134.268 0s.133-.267 0-.267l-10.825-14.3-10.959-14.165z" fill="url(#f)"/><path d="M228.656 63.345l-3.742-17.507-4.009-17.507c0-.134-.133-.134-.267-.134s-.134.134-.134.267l2.272 17.774 2.539 17.774c.802 5.88 1.337 11.894 2.673 17.774s2.807 11.627 4.945 17.373c0 .134.133.134.133.134a.29.29 0 0 0 .268-.267c.133-6.147-.535-12.028-1.203-18.041s-2.272-11.76-3.475-17.64z" fill="url(#g)"/><path d="M298.55 459.987c-.801-5.88-1.336-11.894-2.672-17.774s-2.807-11.627-4.945-17.373c0-.134-.134-.134-.134-.134a.29.29 0 0 0-.267.268c-.134 6.147.535 12.027 1.203 18.041.668 5.88 2.272 11.76 3.474 17.64l3.742 17.507 4.01 17.507c0 .133.133.133.267.133s.133-.133.133-.267l-2.271-17.774-2.54-17.774z" fill="url(#h)"/><path d="M507.963 351.204l-22.451-9.221-22.451-8.953c-7.484-2.941-14.834-6.282-22.585-8.687s-15.503-4.677-23.521-6.147c-.134 0-.267 0-.267.133-.134.134 0 .267.133.401 7.083 4.009 14.567 7.217 22.051 10.29s15.235 5.212 22.852 7.885l22.986 7.617 23.12 7.351c.133 0 .267 0 .267-.134.134-.267 0-.401-.134-.535z" fill="url(#i)"/><path d="M15.903 172.662l22.451 9.221 22.451 8.954c7.484 2.94 14.834 6.281 22.585 8.686s15.502 4.678 23.521 6.148c.133 0 .267 0 .267-.134.134-.134 0-.267-.134-.401-7.083-4.009-14.567-7.216-22.05-10.29s-15.235-5.212-22.852-7.885l-22.986-7.617-23.12-7.083c-.134 0-.267 0-.267.133s0 .268.134.268z" fill="url(#j)"/><path d="M241.486 49.58c.535 8.018.535 16.17 1.604 24.189.534 4.276 1.203 8.553 1.871 12.829a77.35 77.35 0 0 0 1.603 7.617l.802 3.475c0 .134.134.134.268.134a.29.29 0 0 0 .267-.267c.133-1.203.133-2.405.133-3.608.268-2.673.268-5.212.268-7.885 0-4.276-.134-8.687-.268-12.963-.4-8.018-1.737-16.037-2.539-24.055l-2.806-24.055L239.615.935c0-.134-.133-.267-.267-.267s-.267.134-.267.267l1.069 24.189 1.336 24.456z" fill="url(#k)"/><path d="M282.514 474.286l-1.069-19.378-.668-6.949c-1.07-8.018-2.272-16.037-4.277-23.921 0-.134-.134-.134-.267-.134s-.267.134-.267.267c-.669 8.152-.401 16.304-.134 24.323.134 2.272.267 4.677.534 6.949.535 6.415 1.47 12.829 2.272 19.244l2.807 24.055 3.073 24.055a.29.29 0 0 0 .268.267c.133 0 .267-.133.267-.267l-1.069-24.189-1.47-24.322z" fill="url(#l)"/><path d="M186.294 429.116c2.272-5.479 4.41-11.092 5.88-17.106 0-.134 0-.134-.134-.267s-.267 0-.267 0c-3.608 4.944-6.548 10.156-9.355 15.502s-4.811 10.958-7.216 16.438l-6.95 16.571-6.815 16.571c0 .134 0 .267.133.267s.268 0 .268-.133l8.285-15.903 8.152-16.037c2.807-5.078 5.88-10.29 8.019-15.903z" fill="url(#m)"/><path d="M337.574 94.75c-2.272 5.479-4.411 11.092-5.881 17.106 0 .133 0 .133.134.267s.267 0 .267 0c3.609-4.945 6.549-10.156 9.355-15.502s4.811-10.958 7.217-16.438l6.949-16.571 6.815-16.571c0-.134 0-.267-.133-.267s-.268 0-.268.134l-8.285 15.903-8.152 16.037c-2.673 5.212-5.747 10.424-8.018 15.903z" fill="url(#n)"/><path d="M97.958 378.867c4.945-3.341 10.156-6.281 14.967-9.889 4.678-3.608 9.355-7.484 13.632-11.894 0 0 .133-.134 0-.267 0-.134-.134-.134-.268-.134-5.612 2.539-10.691 5.479-15.769 8.687s-9.622 7.083-14.433 10.691l-14.299 10.825-14.166 10.958c-.134 0-.134.134 0 .267 0 .134.134.134.267 0l15.235-9.622 14.834-9.622z" fill="url(#o)"/><path d="M426.042 144.999c-4.944 3.341-10.156 6.281-14.967 9.889-4.678 3.608-9.355 7.484-13.632 11.894 0 0-.133.133 0 .267 0 .134.134.134.268.134 5.613-2.539 10.691-5.479 15.769-8.687s9.622-7.083 14.433-10.691l14.3-10.825 14.165-10.958c.134 0 .134-.134 0-.267 0-.134-.133-.134-.267 0l-15.235 9.622-14.834 9.622z" fill="url(#p)"/><path d="M62.677 170.256l16.037 8.152c5.346 2.673 10.557 5.747 16.037 8.019s11.092 4.41 17.106 5.88c.133 0 .133 0 .267-.134s0-.267 0-.267c-4.945-3.609-10.156-6.549-15.502-9.355s-10.958-4.811-16.438-7.217l-16.571-6.949-16.571-6.815c-.134 0-.267 0-.267.133s0 .267.134.267l15.769 8.286z" fill="url(#q)"/><path d="M461.189 353.744l-16.036-8.152c-5.346-2.673-10.558-5.747-16.037-8.018s-11.092-4.411-17.106-5.881c-.134 0-.134 0-.267.134s0 .267 0 .267c4.944 3.609 10.156 6.549 15.502 9.355s10.958 4.811 16.438 7.217l16.571 6.949 16.571 6.815c.134 0 .267 0 .267-.133s0-.268-.133-.268l-15.77-8.285z" fill="url(#r)"/><path d="M144.999 97.958c3.341 4.945 6.281 10.156 9.889 14.967 3.608 4.678 7.484 9.355 11.894 13.632 0 0 .133.133.267 0 .134 0 .134-.134.134-.268-2.539-5.612-5.479-10.691-8.687-15.769s-7.083-9.622-10.691-14.433L136.98 81.788l-10.958-14.166c0-.134-.134-.134-.267 0-.134 0-.134.134 0 .267l9.622 15.235 9.622 14.834z" fill="url(#s)"/><path d="M378.867 426.042c-3.341-4.944-6.281-10.156-9.889-14.967-3.608-4.678-7.484-9.355-11.894-13.632 0 0-.134-.133-.267 0-.134 0-.134.134-.134.268 2.539 5.613 5.479 10.691 8.687 15.769s7.083 9.622 10.691 14.433l10.825 14.3 10.958 14.165c0 .134.134.134.267 0 .134 0 .134-.133 0-.267l-9.622-15.235-9.622-14.834z" fill="url(#t)"/><path d="M474.286 241.486c-8.019.535-16.171.535-24.189 1.604s-16.037 2.272-23.921 4.276c-.134 0-.134.134-.134.267a.29.29 0 0 0 .267.268c8.152.668 16.304.401 24.323.133 8.018-.4 16.036-1.737 24.055-2.539l24.055-2.806 24.055-3.074c.134 0 .267-.133.267-.267s-.133-.267-.267-.267l-24.189 1.069-24.322 1.336z" fill="url(#u)"/><path d="M49.581 282.514c8.018-.535 16.17-.535 24.189-1.604s16.037-2.272 23.922-4.276c.134 0 .134-.134.134-.268a.29.29 0 0 0-.267-.267c-8.152-.668-16.304-.401-24.322-.134-8.018.401-16.037 1.738-24.055 2.54l-24.055 2.806-24.055 3.074c-.134 0-.267.133-.267.267s.134.267.267.267l24.189-1.069 24.322-1.336z" fill="url(#v)"/><path d="M284.518 1.203l-3.074 24.055-2.806 24.055c-.935 8.018-2.272 16.037-2.539 24.055-.267 4.276-.267 8.553-.267 12.963 0 2.539 0 5.212.267 7.885 0 1.203.133 2.406.133 3.608 0 .134.134.134.134.267.134 0 .267 0 .267-.134l.802-3.475a77.36 77.36 0 0 0 1.604-7.618c.802-4.276 1.336-8.553 1.871-12.829 1.069-8.018 1.069-16.037 1.604-24.189l1.336-24.189 1.069-24.189a.29.29 0 0 0-.267-.267c0-.267-.134-.134-.134 0z" fill="url(#w)"/><path d="M247.901 423.904c-.134 0-.267 0-.267.134-2.005 7.884-3.208 15.903-4.277 23.921-.267 2.272-.534 4.678-.668 6.949-.535 6.415-.668 12.83-1.069 19.378l-1.337 24.189-1.069 24.189a.29.29 0 0 0 .268.267.29.29 0 0 0 .267-.267l3.074-24.056 2.806-24.055c.668-6.414 1.737-12.829 2.272-19.244.267-2.272.401-4.677.534-6.949.401-8.018.535-16.17-.133-24.322-.267 0-.401-.134-.401-.134z" fill="url(#x)"/><path d="M348.666 443.816c-2.406-5.479-4.411-11.092-7.217-16.438s-5.746-10.557-9.355-15.502c0-.133-.133-.133-.267-.133s-.134.133-.134.267c1.47 5.88 3.609 11.493 5.881 17.106s5.211 10.691 8.018 16.037l8.152 16.036 8.285 15.903c0 .134.134.134.268.134s.133-.134.133-.267l-6.815-16.572-6.949-16.571z" fill="url(#y)"/><path d="M175.335 80.183c2.406 5.479 4.41 11.092 7.217 16.438s5.746 10.558 9.355 15.502c0 .134.133.134.267.134s.133-.134.133-.267c-1.47-5.881-3.608-11.493-5.88-17.106s-5.212-10.691-8.018-16.037l-8.152-16.037-8.419-16.037c0-.134-.134-.134-.268-.134s-.133.134-.133.267l6.815 16.571 7.083 16.705z" fill="url(#z)"/><path d="M442.213 386.886l-14.299-10.825c-4.811-3.608-9.355-7.484-14.434-10.691s-10.156-6.281-15.769-8.687h-.267c-.134.134-.134.267 0 .267 4.276 4.411 8.82 8.152 13.631 11.894 4.677 3.742 9.889 6.682 14.968 9.89l15.101 9.755 15.235 9.622h.267c.134-.133 0-.267 0-.267l-14.433-10.958z" fill="url(#AA)"/><path d="M81.653 136.98l14.299 10.825c4.811 3.608 9.355 7.484 14.433 10.691s10.156 6.281 15.769 8.687h.268c.133-.134.133-.267 0-.267-4.277-4.41-8.821-8.152-13.632-11.894-4.677-3.742-9.889-6.682-14.967-9.89l-14.968-9.889-15.101-9.622h-.267c-.134.134 0 .267 0 .267l14.166 11.092z" fill="url(#AB)"/><path d="M443.816 175.334c-5.479 2.406-11.092 4.411-16.438 7.217s-10.557 5.746-15.502 9.355c-.133 0-.133.133-.133.267s.133.134.267.134c5.88-1.47 11.493-3.609 17.106-5.88s10.691-5.212 16.037-8.019l16.036-8.152 15.903-8.286c.134 0 .134-.133.134-.267s-.134-.133-.267-.133l-16.572 6.815-16.571 6.949z" fill="url(#AC)"/><path d="M80.183 348.666c5.479-2.406 11.092-4.411 16.438-7.217s10.558-5.746 15.502-9.355c.134 0 .134-.133.134-.267s-.134-.134-.267-.134c-5.881 1.47-11.493 3.609-17.106 5.881s-10.691 5.211-16.037 8.018l-16.037 8.152-16.037 8.285c-.134 0-.134.134-.134.268s.134.133.267.133l16.571-6.815 16.705-6.949z" fill="url(#AD)"/><path d="M365.504 110.519c-3.207 5.079-6.281 10.157-8.686 15.77v.267c.133.134.267.134.267 0 4.41-4.276 8.152-8.82 11.894-13.631 3.742-4.678 6.682-9.889 9.889-14.968l9.756-15.101 9.622-15.235v-.267c-.134-.134-.267 0-.267 0L387.02 81.52l-10.825 14.299c-3.608 4.945-7.483 9.622-10.691 14.7z" fill="url(#AE)"/><path d="M158.496 413.48c3.208-5.078 6.281-10.156 8.687-15.769v-.267c-.134-.134-.267-.134-.267 0-4.41 4.276-8.152 8.82-11.894 13.631-3.742 4.677-6.682 9.889-9.89 14.968l-9.755 15.101-9.756 15.101v.267c.134.134.267 0 .267 0l10.959-14.165 10.825-14.3c3.741-4.945 7.617-9.488 10.824-14.567z" fill="url(#AF)"/><path d="M1.202 239.348l24.055 3.073 24.055 2.807c8.018.935 16.037 2.272 24.055 2.539 8.018.401 16.17.535 24.322-.134.134 0 .134-.133.267-.133 0-.134 0-.268-.134-.268-7.885-2.004-15.903-3.207-23.921-4.276s-16.037-1.069-24.189-1.604l-24.189-1.336-24.189-1.069c-.134 0-.267.133-.267.267-.134 0 0 .134.134.134z" fill="url(#AG)"/><path d="M522.797 284.519l-24.055-3.074-24.055-2.807c-8.019-.935-16.037-2.271-24.055-2.539-8.019-.401-16.171-.534-24.323.134-.133 0-.133.134-.267.134 0 .133 0 .267.134.267 7.884 2.004 15.903 3.207 23.921 4.276s16.037 1.069 24.189 1.604l24.189 1.336 24.188 1.069a.29.29 0 0 0 .268-.267s0-.133-.134-.133z" fill="url(#AH)"/><path d="M109.718 112.525c5.613 5.88 10.825 12.027 16.839 17.506 3.207 2.941 6.414 5.747 9.755 8.553 2.005 1.738 4.01 3.341 6.148 4.811.935.669 1.871 1.47 2.806 2.139h.268c.133-.134.133-.268 0-.401-.669-.936-1.47-1.871-2.139-2.807-1.47-2.138-3.207-4.143-4.811-6.147-2.806-3.341-5.613-6.548-8.553-9.756-5.479-6.014-11.626-11.225-17.506-16.838L94.884 93.147 77.11 76.709c-.134-.134-.267-.134-.267 0-.134.134-.134.267 0 .401l16.304 17.774 16.571 17.641z" fill="url(#AI)"/><path d="M414.148 411.476c-4.41-4.678-8.686-9.489-13.23-14.032l-4.945-4.945c-5.88-5.479-12.027-10.825-18.709-15.502h-.268c-.133.133-.133.267 0 .401 4.811 6.682 10.023 12.695 15.503 18.709a86.04 86.04 0 0 0 4.944 4.945c4.544 4.544 9.355 8.82 14.032 13.23l17.641 16.571 17.774 16.438c.133.134.267.134.267 0 .134-.133.134-.267 0-.401l-16.438-17.774-16.571-17.64z" fill="url(#AJ)"/><path d="M438.605 311.513c5.746 1.871 11.626 2.807 17.506 4.277l17.507 4.009 17.507 3.875c.134 0 .267 0 .267-.133s0-.268-.133-.268l-17.106-5.479-17.106-5.212c-5.747-1.737-11.359-3.742-17.24-5.078s-11.76-2.406-17.774-2.806c-.133 0-.133 0-.267.133 0 .134 0 .267.134.267 5.345 2.54 11.092 4.544 16.705 6.415z" fill="url(#AK)"/><path d="M66.953 211.418c5.746 1.737 11.359 3.741 17.239 5.078s11.76 2.405 17.774 2.806c.133 0 .133 0 .267-.133 0-.134 0-.268-.134-.268-5.479-2.672-11.092-4.677-16.838-6.414-5.747-1.871-11.627-2.807-17.507-4.277l-17.507-4.009-17.507-3.876c-.134 0-.267 0-.267.134s0 .267.134.267l17.106 5.48 17.24 5.212z" fill="url(#AL)"/><path d="M473.618 204.201l-17.507 4.009c-5.88 1.337-11.76 2.406-17.506 4.277s-11.36 3.742-16.839 6.414c-.134 0-.134.134-.134.268s.134.267.268.133c6.013-.401 12.027-1.603 17.774-2.806 5.88-1.203 11.493-3.341 17.239-5.078l17.106-5.212 17.106-5.48c.133 0 .133-.133.133-.267s-.133-.134-.267-.134l-17.373 3.876z" fill="url(#AM)"/><path d="M50.382 319.799l17.507-4.009c5.88-1.336 11.76-2.405 17.507-4.276s11.359-3.742 16.838-6.415c.134 0 .134-.134.134-.267s-.134-.267-.267-.134c-6.014.401-12.028 1.604-17.775 2.807-5.88 1.202-11.493 3.341-17.239 5.078l-17.106 5.212-17.106 5.479c-.134 0-.134.134-.134.267s.134.134.267.134l17.373-3.876z" fill="url(#AN)"/><path d="M304.965 102.1c2.673-5.479 4.677-11.092 6.415-16.838 1.871-5.747 2.806-11.627 4.276-17.507l4.009-17.507 3.876-17.507c0-.134 0-.267-.134-.267s-.267 0-.267.134l-5.479 17.106-5.212 17.106c-1.738 5.746-3.742 11.359-5.079 17.239s-2.405 11.76-2.806 17.774c0 .134 0 .134.134.267s.267.134.267 0z" fill="url(#AO)"/><path d="M218.901 421.766c-2.672 5.479-4.677 11.092-6.414 16.839-1.871 5.746-2.807 11.626-4.277 17.506l-4.009 17.507-3.876 17.507c0 .134 0 .267.134.267s.267 0 .267-.133l5.48-17.106 5.212-17.106c1.737-5.747 3.741-11.359 5.078-17.239s2.405-11.761 2.806-17.775c0-.133 0-.133-.133-.267 0-.133-.134 0-.268 0z" fill="url(#AP)"/><path d="M211.418 66.953l-5.212-17.106-5.48-17.106c0-.134-.133-.134-.267-.134s-.134.134-.134.267l3.876 17.507 4.009 17.507c1.337 5.88 2.406 11.76 4.277 17.507s3.742 11.359 6.414 16.838c0 .134.134.134.268.134s.267-.134.133-.268c-.401-6.013-1.603-12.027-2.806-17.774-1.203-6.014-3.341-11.627-5.078-17.373z" fill="url(#AQ)"/><path d="M315.79 456.111c-1.336-5.88-2.405-11.76-4.276-17.506s-3.742-11.36-6.415-16.839c0-.134-.134-.134-.267-.134s-.267.134-.134.268c.401 6.013 1.604 12.027 2.807 17.774 1.202 5.88 3.341 11.493 5.078 17.239l5.212 17.106 5.479 17.106c0 .133.134.133.267.133s.134-.133.134-.267l-3.876-17.507-4.009-17.373z" fill="url(#AR)"/><path d="M130.031 397.443c5.48-5.88 10.825-12.027 15.503-18.709v-.268c-.134-.133-.268-.133-.401 0-6.682 4.811-12.696 10.023-18.71 15.503s-11.226 11.626-16.838 17.506l-16.572 17.641-16.438 17.774c-.134.133-.134.267 0 .267.134.134.267.134.401 0l17.908-16.304 17.641-16.571c5.88-5.613 12.027-10.959 17.506-16.839z" fill="url(#AS)"/><path d="M393.969 126.557c-5.479 5.88-10.825 12.027-15.502 18.709v.268c.133.133.267.133.401 0 6.682-4.811 12.695-10.023 18.709-15.503s11.226-11.626 16.839-17.506l16.437-17.641 16.438-17.774c.134-.134.134-.267 0-.267-.134-.134-.267-.134-.401 0l-17.774 16.438-17.64 16.571c-5.88 5.479-12.028 10.691-17.507 16.705z" fill="url(#AT)"/><defs><linearGradient id="A" x1="259.455" y1="48.645" x2="264.731" y2="48.645" xlink:href="#AU"><stop stop-color="#a7843c"/><stop offset=".505" stop-color="#c8ac68"/><stop offset="1" stop-color="#7e673a"/></linearGradient><linearGradient id="B" x1="259.528" y1="474.153" x2="264.472" y2="474.153" xlink:href="#AU"><stop stop-color="#a7843c"/><stop offset=".505" stop-color="#c8ac68"/><stop offset="1" stop-color="#7e673a"/></linearGradient><linearGradient id="C" x1="344.656" y1="436.436" x2="381.006" y2="436.436" xlink:href="#AU"><stop stop-color="#a7843c"/><stop offset=".505" stop-color="#c8ac68"/><stop offset="1" stop-color="#7e673a"/></linearGradient><linearGradient id="D" x1="142.994" y1="87.43" x2="179.344" y2="87.43" xlink:href="#AU"><stop stop-color="#a7843c"/><stop offset=".505" stop-color="#c8ac68"/><stop offset="1" stop-color="#7e673a"/></linearGradient><linearGradient id="E" x1="405.095" y1="362.564" x2="467.605" y2="362.564" xlink:href="#AU"><stop stop-color="#a7843c"/><stop offset=".505" stop-color="#c8ac68"/><stop offset="1" stop-color="#7e673a"/></linearGradient><linearGradient id="F" x1="56.396" y1="161.303" x2="118.906" y2="161.303" xlink:href="#AU"><stop stop-color="#a7843c"/><stop offset=".505" stop-color="#c8ac68"/><stop offset="1" stop-color="#7e673a"/></linearGradient><linearGradient id="G" x1="405.135" y1="161.169" x2="467.738" y2="161.169" xlink:href="#AU"><stop stop-color="#a7843c"/><stop offset=".505" stop-color="#c8ac68"/><stop offset="1" stop-color="#7e673a"/></linearGradient><linearGradient id="H" x1="56.128" y1="362.831" x2="118.731" y2="362.831" xlink:href="#AU"><stop stop-color="#a7843c"/><stop offset=".505" stop-color="#c8ac68"/><stop offset="1" stop-color="#7e673a"/></linearGradient><linearGradient id="I" x1="344.522" y1="87.517" x2="380.605" y2="87.517" xlink:href="#AU"><stop stop-color="#a7843c"/><stop offset=".505" stop-color="#c8ac68"/><stop offset="1" stop-color="#7e673a"/></linearGradient><linearGradient id="J" x1="143.396" y1="436.35" x2="179.478" y2="436.35" xlink:href="#AU"><stop stop-color="#a7843c"/><stop offset=".505" stop-color="#c8ac68"/><stop offset="1" stop-color="#7e673a"/></linearGradient><linearGradient id="K" x1="0" y1="262.041" x2="97.29" y2="262.041" xlink:href="#AU"><stop stop-color="#a7843c"/><stop offset=".505" stop-color="#c8ac68"/><stop offset="1" stop-color="#7e673a"/></linearGradient><linearGradient id="L" x1="426.71" y1="261.96" x2="524" y2="261.96" xlink:href="#AU"><stop stop-color="#a7843c"/><stop offset=".505" stop-color="#c8ac68"/><stop offset="1" stop-color="#7e673a"/></linearGradient><linearGradient id="M" x1="172.529" y1="61.474" x2="205.994" y2="61.474" xlink:href="#AU"><stop stop-color="#a7843c"/><stop offset=".505" stop-color="#c8ac68"/><stop offset="1" stop-color="#7e673a"/></linearGradient><linearGradient id="N" x1="317.472" y1="461.256" x2="351.739" y2="461.256" xlink:href="#AU"><stop stop-color="#a7843c"/><stop offset=".505" stop-color="#c8ac68"/><stop offset="1" stop-color="#7e673a"/></linearGradient><linearGradient id="O" x1="388.524" y1="391.497" x2="444.051" y2="391.497" xlink:href="#AU"><stop stop-color="#a7843c"/><stop offset=".505" stop-color="#c8ac68"/><stop offset="1" stop-color="#7e673a"/></linearGradient><linearGradient id="P" x1="79.816" y1="132.503" x2="135.343" y2="132.503" xlink:href="#AU"><stop stop-color="#a7843c"/><stop offset=".505" stop-color="#c8ac68"/><stop offset="1" stop-color="#7e673a"/></linearGradient><linearGradient id="Q" x1="424.973" y1="296.936" x2="495.935" y2="296.936" xlink:href="#AU"><stop stop-color="#a7843c"/><stop offset=".505" stop-color="#c8ac68"/><stop offset="1" stop-color="#7e673a"/></linearGradient><linearGradient id="R" x1="28.065" y1="226.996" x2="99.027" y2="226.996" xlink:href="#AU"><stop stop-color="#a7843c"/><stop offset=".505" stop-color="#c8ac68"/><stop offset="1" stop-color="#7e673a"/></linearGradient><linearGradient id="S" x1="368.311" y1="107.58" x2="414.683" y2="107.58" xlink:href="#AU"><stop stop-color="#a7843c"/><stop offset=".505" stop-color="#c8ac68"/><stop offset="1" stop-color="#7e673a"/></linearGradient><linearGradient id="T" x1="109.317" y1="416.287" x2="155.69" y2="416.287" xlink:href="#AU"><stop stop-color="#a7843c"/><stop offset=".505" stop-color="#c8ac68"/><stop offset="1" stop-color="#7e673a"/></linearGradient><linearGradient id="U" x1="290.645" y1="63.613" x2="303.495" y2="63.613" xlink:href="#AU"><stop stop-color="#a7843c"/><stop offset=".505" stop-color="#c8ac68"/><stop offset="1" stop-color="#7e673a"/></linearGradient><linearGradient id="V" x1="220.639" y1="460.405" x2="233.489" y2="460.405" xlink:href="#AU"><stop stop-color="#a7843c"/><stop offset=".505" stop-color="#c8ac68"/><stop offset="1" stop-color="#7e673a"/></linearGradient><linearGradient id="W" x1="15.77" y1="335.006" x2="107.313" y2="335.006" xlink:href="#AU"><stop stop-color="#a7843c"/><stop offset=".505" stop-color="#c8ac68"/><stop offset="1" stop-color="#7e673a"/></linearGradient><linearGradient id="X" x1="416.688" y1="188.993" x2="508.097" y2="188.993" xlink:href="#AU"><stop stop-color="#a7843c"/><stop offset=".505" stop-color="#c8ac68"/><stop offset="1" stop-color="#7e673a"/></linearGradient><linearGradient id="Y" x1="318.196" y1="61.569" x2="352.006" y2="61.569" xlink:href="#AU"><stop stop-color="#a7843c"/><stop offset=".505" stop-color="#c8ac68"/><stop offset="1" stop-color="#7e673a"/></linearGradient><linearGradient id="Z" x1="172.128" y1="461.429" x2="206.473" y2="461.429" xlink:href="#AU"><stop stop-color="#a7843c"/><stop offset=".505" stop-color="#c8ac68"/><stop offset="1" stop-color="#7e673a"/></linearGradient><linearGradient id="a" x1="79.95" y1="391.346" x2="135.377" y2="391.346" xlink:href="#AU"><stop stop-color="#a7843c"/><stop offset=".505" stop-color="#c8ac68"/><stop offset="1" stop-color="#7e673a"/></linearGradient><linearGradient id="b" x1="388.623" y1="132.52" x2="444.05" y2="132.52" xlink:href="#AU"><stop stop-color="#a7843c"/><stop offset=".505" stop-color="#c8ac68"/><stop offset="1" stop-color="#7e673a"/></linearGradient><linearGradient id="c" x1="28.198" y1="297.072" x2="99.294" y2="297.072" xlink:href="#AU"><stop stop-color="#a7843c"/><stop offset=".505" stop-color="#c8ac68"/><stop offset="1" stop-color="#7e673a"/></linearGradient><linearGradient id="d" x1="424.706" y1="226.928" x2="495.802" y2="226.928" xlink:href="#AU"><stop stop-color="#a7843c"/><stop offset=".505" stop-color="#c8ac68"/><stop offset="1" stop-color="#7e673a"/></linearGradient><linearGradient id="e" x1="109.217" y1="107.663" x2="155.824" y2="107.663" xlink:href="#AU"><stop stop-color="#a7843c"/><stop offset=".505" stop-color="#c8ac68"/><stop offset="1" stop-color="#7e673a"/></linearGradient><linearGradient id="f" x1="368.177" y1="416.337" x2="414.65" y2="416.337" xlink:href="#AU"><stop stop-color="#a7843c"/><stop offset=".505" stop-color="#c8ac68"/><stop offset="1" stop-color="#7e673a"/></linearGradient><linearGradient id="g" x1="220.504" y1="63.746" x2="233.351" y2="63.746" xlink:href="#AU"><stop stop-color="#a7843c"/><stop offset=".505" stop-color="#c8ac68"/><stop offset="1" stop-color="#7e673a"/></linearGradient><linearGradient id="h" x1="290.515" y1="460.254" x2="303.361" y2="460.254" xlink:href="#AU"><stop stop-color="#a7843c"/><stop offset=".505" stop-color="#c8ac68"/><stop offset="1" stop-color="#7e673a"/></linearGradient><linearGradient id="i" x1="416.632" y1="335.034" x2="508.152" y2="335.034" xlink:href="#AU"><stop stop-color="#a7843c"/><stop offset=".505" stop-color="#c8ac68"/><stop offset="1" stop-color="#7e673a"/></linearGradient><linearGradient id="j" x1="15.77" y1="188.966" x2="107.234" y2="188.966" xlink:href="#AU"><stop stop-color="#a7843c"/><stop offset=".505" stop-color="#c8ac68"/><stop offset="1" stop-color="#7e673a"/></linearGradient><linearGradient id="k" x1="239.081" y1="49.246" x2="248.302" y2="49.246" xlink:href="#AU"><stop stop-color="#a7843c"/><stop offset=".505" stop-color="#c8ac68"/><stop offset="1" stop-color="#7e673a"/></linearGradient><linearGradient id="l" x1="275.546" y1="473.484" x2="285.053" y2="473.484" xlink:href="#AU"><stop stop-color="#a7843c"/><stop offset=".505" stop-color="#c8ac68"/><stop offset="1" stop-color="#7e673a"/></linearGradient><linearGradient id="m" x1="161.437" y1="444.388" x2="192.174" y2="444.388" xlink:href="#AU"><stop stop-color="#a7843c"/><stop offset=".505" stop-color="#c8ac68"/><stop offset="1" stop-color="#7e673a"/></linearGradient><linearGradient id="n" x1="331.693" y1="79.478" x2="362.43" y2="79.478" xlink:href="#AU"><stop stop-color="#a7843c"/><stop offset=".505" stop-color="#c8ac68"/><stop offset="1" stop-color="#7e673a"/></linearGradient><linearGradient id="o" x1="67.522" y1="377.447" x2="126.616" y2="377.447" xlink:href="#AU"><stop stop-color="#a7843c"/><stop offset=".505" stop-color="#c8ac68"/><stop offset="1" stop-color="#7e673a"/></linearGradient><linearGradient id="p" x1="397.384" y1="146.419" x2="456.479" y2="146.419" xlink:href="#AU"><stop stop-color="#a7843c"/><stop offset=".505" stop-color="#c8ac68"/><stop offset="1" stop-color="#7e673a"/></linearGradient><linearGradient id="q" x1="46.773" y1="176.938" x2="112.183" y2="176.938" xlink:href="#AU"><stop stop-color="#a7843c"/><stop offset=".505" stop-color="#c8ac68"/><stop offset="1" stop-color="#7e673a"/></linearGradient><linearGradient id="r" x1="411.683" y1="347.062" x2="477.092" y2="347.062" xlink:href="#AU"><stop stop-color="#a7843c"/><stop offset=".505" stop-color="#c8ac68"/><stop offset="1" stop-color="#7e673a"/></linearGradient><linearGradient id="s" x1="125.654" y1="97.069" x2="167.183" y2="97.069" xlink:href="#AU"><stop stop-color="#a7843c"/><stop offset=".505" stop-color="#c8ac68"/><stop offset="1" stop-color="#7e673a"/></linearGradient><linearGradient id="t" x1="356.683" y1="426.931" x2="398.212" y2="426.931" xlink:href="#AU"><stop stop-color="#a7843c"/><stop offset=".505" stop-color="#c8ac68"/><stop offset="1" stop-color="#7e673a"/></linearGradient><linearGradient id="u" x1="426.042" y1="243.7" x2="523.064" y2="243.7" xlink:href="#AU"><stop stop-color="#a7843c"/><stop offset=".505" stop-color="#c8ac68"/><stop offset="1" stop-color="#7e673a"/></linearGradient><linearGradient id="v" x1=".802" y1="280.299" x2="97.825" y2="280.299" xlink:href="#AU"><stop stop-color="#a7843c"/><stop offset=".505" stop-color="#c8ac68"/><stop offset="1" stop-color="#7e673a"/></linearGradient><linearGradient id="w" x1="275.832" y1="49.57" x2="284.919" y2="49.57" xlink:href="#AU"><stop stop-color="#a7843c"/><stop offset=".505" stop-color="#c8ac68"/><stop offset="1" stop-color="#7e673a"/></linearGradient><linearGradient id="x" x1="239.214" y1="473.417" x2="248.77" y2="473.417" xlink:href="#AU"><stop stop-color="#a7843c"/><stop offset=".505" stop-color="#c8ac68"/><stop offset="1" stop-color="#7e673a"/></linearGradient><linearGradient id="y" x1="331.693" y1="444.484" x2="362.43" y2="444.484" xlink:href="#AU"><stop stop-color="#a7843c"/><stop offset=".505" stop-color="#c8ac68"/><stop offset="1" stop-color="#7e673a"/></linearGradient><linearGradient id="z" x1="161.437" y1="79.448" x2="192.307" y2="79.448" xlink:href="#AU"><stop stop-color="#a7843c"/><stop offset=".505" stop-color="#c8ac68"/><stop offset="1" stop-color="#7e673a"/></linearGradient><linearGradient id="AA" x1="397.344" y1="377.397" x2="456.705" y2="377.397" xlink:href="#AU"><stop stop-color="#a7843c"/><stop offset=".505" stop-color="#c8ac68"/><stop offset="1" stop-color="#7e673a"/></linearGradient><linearGradient id="AB" x1="67.428" y1="146.402" x2="126.523" y2="146.402" xlink:href="#AU"><stop stop-color="#a7843c"/><stop offset=".505" stop-color="#c8ac68"/><stop offset="1" stop-color="#7e673a"/></linearGradient><linearGradient id="AC" x1="411.743" y1="176.938" x2="477.226" y2="176.938" xlink:href="#AU"><stop stop-color="#a7843c"/><stop offset=".505" stop-color="#c8ac68"/><stop offset="1" stop-color="#7e673a"/></linearGradient><linearGradient id="AD" x1="46.64" y1="347.062" x2="112.257" y2="347.062" xlink:href="#AU"><stop stop-color="#a7843c"/><stop offset=".505" stop-color="#c8ac68"/><stop offset="1" stop-color="#7e673a"/></linearGradient><linearGradient id="AE" x1="356.818" y1="96.975" x2="398.246" y2="96.975" xlink:href="#AU"><stop stop-color="#a7843c"/><stop offset=".505" stop-color="#c8ac68"/><stop offset="1" stop-color="#7e673a"/></linearGradient><linearGradient id="AF" x1="125.621" y1="426.958" x2="167.183" y2="426.958" xlink:href="#AU"><stop stop-color="#a7843c"/><stop offset=".505" stop-color="#c8ac68"/><stop offset="1" stop-color="#7e673a"/></linearGradient><linearGradient id="AG" x1="1.013" y1="243.524" x2="97.957" y2="243.524" xlink:href="#AU"><stop stop-color="#a7843c"/><stop offset=".505" stop-color="#c8ac68"/><stop offset="1" stop-color="#7e673a"/></linearGradient><linearGradient id="AH" x1="426.042" y1="280.342" x2="522.931" y2="280.342" xlink:href="#AU"><stop stop-color="#a7843c"/><stop offset=".505" stop-color="#c8ac68"/><stop offset="1" stop-color="#7e673a"/></linearGradient><linearGradient id="AI" x1="76.743" y1="111.071" x2="145.634" y2="111.071" xlink:href="#AU"><stop stop-color="#a7843c"/><stop offset=".505" stop-color="#c8ac68"/><stop offset="1" stop-color="#7e673a"/></linearGradient><linearGradient id="AJ" x1="376.896" y1="412.194" x2="447.257" y2="412.194" xlink:href="#AU"><stop stop-color="#a7843c"/><stop offset=".505" stop-color="#c8ac68"/><stop offset="1" stop-color="#7e673a"/></linearGradient><linearGradient id="AK" x1="421.766" y1="314.186" x2="491.392" y2="314.186" xlink:href="#AU"><stop stop-color="#a7843c"/><stop offset=".505" stop-color="#c8ac68"/><stop offset="1" stop-color="#7e673a"/></linearGradient><linearGradient id="AL" x1="32.474" y1="209.814" x2="102.234" y2="209.814" xlink:href="#AU"><stop stop-color="#a7843c"/><stop offset=".505" stop-color="#c8ac68"/><stop offset="1" stop-color="#7e673a"/></linearGradient><linearGradient id="AM" x1="421.632" y1="209.842" x2="491.258" y2="209.842" xlink:href="#AU"><stop stop-color="#a7843c"/><stop offset=".505" stop-color="#c8ac68"/><stop offset="1" stop-color="#7e673a"/></linearGradient><linearGradient id="AN" x1="32.742" y1="314.159" x2="102.368" y2="314.159" xlink:href="#AU"><stop stop-color="#a7843c"/><stop offset=".505" stop-color="#c8ac68"/><stop offset="1" stop-color="#7e673a"/></linearGradient><linearGradient id="AO" x1="304.564" y1="67.337" x2="323.541" y2="67.337" xlink:href="#AU"><stop stop-color="#a7843c"/><stop offset=".505" stop-color="#c8ac68"/><stop offset="1" stop-color="#7e673a"/></linearGradient><linearGradient id="AP" x1="200.325" y1="456.55" x2="219.302" y2="456.55" xlink:href="#AU"><stop stop-color="#a7843c"/><stop offset=".505" stop-color="#c8ac68"/><stop offset="1" stop-color="#7e673a"/></linearGradient><linearGradient id="AQ" x1="200.325" y1="67.488" x2="219.358" y2="67.488" xlink:href="#AU"><stop stop-color="#a7843c"/><stop offset=".505" stop-color="#c8ac68"/><stop offset="1" stop-color="#7e673a"/></linearGradient><linearGradient id="AR" x1="304.643" y1="456.445" x2="323.675" y2="456.445" xlink:href="#AU"><stop stop-color="#a7843c"/><stop offset=".505" stop-color="#c8ac68"/><stop offset="1" stop-color="#7e673a"/></linearGradient><linearGradient id="AS" x1="76.475" y1="412.812" x2="145.534" y2="412.812" xlink:href="#AU"><stop stop-color="#a7843c"/><stop offset=".505" stop-color="#c8ac68"/><stop offset="1" stop-color="#7e673a"/></linearGradient><linearGradient id="AT" x1="378.467" y1="111.188" x2="447.391" y2="111.188" xlink:href="#AU"><stop stop-color="#a7843c"/><stop offset=".505" stop-color="#c8ac68"/><stop offset="1" stop-color="#7e673a"/></linearGradient><linearGradient id="AU" gradientUnits="userSpaceOnUse"/></defs></svg>