<svg width="286" height="286" viewBox="0 0 286 286" fill="none" xmlns="http://www.w3.org/2000/svg">
<path d="M272.195 143.154L285.355 142.645C285.427 142.645 285.5 142.573 285.5 142.5C285.5 142.427 285.427 142.355 285.355 142.355L272.195 141.846L259.036 141.482C254.674 141.337 250.239 141.046 245.876 141.191C243.55 141.264 241.223 141.409 238.824 141.628C237.443 141.7 235.989 141.846 234.607 142.137C233.953 142.209 233.299 142.282 232.717 142.427C232.644 142.427 232.644 142.5 232.572 142.573C232.572 142.645 232.644 142.718 232.717 142.718C233.371 142.791 234.026 142.936 234.607 143.009C235.989 143.227 237.443 143.372 238.824 143.518C241.151 143.736 243.477 143.881 245.876 143.954C250.239 144.172 254.674 143.809 259.036 143.663L272.195 143.154Z" fill="white"/>
<path d="M41.287 143.881C45.6493 143.736 50.0842 143.445 54.4465 142.718C54.5192 142.718 54.5191 142.645 54.5919 142.573C54.5919 142.5 54.5192 142.427 54.4465 142.427C50.0842 141.7 45.6493 141.41 41.287 141.264C40.051 141.191 38.7424 141.191 37.5064 141.191C34.0166 141.191 30.4541 141.41 26.9643 141.482L13.8049 141.846L0.645452 142.355C0.572748 142.355 0.500036 142.427 0.500036 142.5C0.500036 142.573 0.572748 142.645 0.645452 142.645L13.8049 143.154L26.9643 143.518C30.4541 143.591 34.0166 143.809 37.5064 143.809C38.7424 143.881 39.9783 143.881 41.287 143.881Z" fill="white"/>
<path d="M48.5575 198.119C51.393 196.592 54.3738 195.21 57.1366 193.465C59.8993 191.721 62.5894 189.83 65.0613 187.722C65.0613 187.722 65.134 187.649 65.0613 187.576C65.0613 187.504 64.9886 187.504 64.9159 187.504C61.7896 188.594 58.8088 189.976 55.9733 191.502C53.0651 192.957 50.3751 194.847 47.6123 196.592L39.3241 201.754L31.1085 207.061C31.0358 207.061 31.0358 207.134 31.0358 207.207C31.0358 207.279 31.1085 207.279 31.1812 207.279L39.833 202.772L48.5575 198.119Z" fill="white"/>
<path d="M237.443 86.954C234.607 88.4808 231.626 89.8622 228.864 91.6071C226.101 93.352 223.411 95.2423 220.939 97.3507C220.939 97.3507 220.866 97.4234 220.939 97.4961C220.939 97.5688 221.012 97.5688 221.084 97.5688C224.211 96.4783 227.191 95.0969 230.027 93.5701C232.935 92.116 235.625 90.2257 238.388 88.4808L246.676 83.3188L254.892 78.0114C254.964 78.0114 254.964 77.9387 254.964 77.866C254.964 77.7933 254.892 77.7933 254.819 77.7933L246.167 82.301L237.443 86.954Z" fill="white"/>
<path d="M83.8189 246.176L88.9809 237.888C90.7258 235.125 92.5434 232.435 94.0702 229.527C95.597 226.618 96.9784 223.71 98.0689 220.584C98.0689 220.511 98.0689 220.511 98.0689 220.439C97.9962 220.366 97.9235 220.366 97.9235 220.439C95.7424 222.911 93.9248 225.673 92.1799 228.363C90.435 231.126 89.0536 234.034 87.5268 236.942L82.9465 245.594L78.4388 254.246C78.4388 254.319 78.4388 254.391 78.5115 254.391C78.5842 254.391 78.6569 254.391 78.6569 254.391L83.8189 246.176Z" fill="white"/>
<path d="M202.181 38.8966L197.019 47.1849C195.274 49.9477 193.457 52.6377 191.93 55.5459C190.403 58.454 189.022 61.3622 187.931 64.4885C187.931 64.5612 187.931 64.5612 187.931 64.6339C188.004 64.7066 188.077 64.7066 188.077 64.6339C190.258 62.1619 192.075 59.4719 193.82 56.7091C195.565 53.9464 196.947 51.0382 198.473 48.1301L203.054 39.4783L207.561 30.8265C207.561 30.7538 207.561 30.6811 207.489 30.6811C207.416 30.6811 207.343 30.6811 207.343 30.6811L202.181 38.8966Z" fill="white"/>
<path d="M198.546 236.943C197.019 234.107 195.638 231.126 193.893 228.363C192.148 225.601 190.258 222.911 188.149 220.439C188.149 220.439 188.077 220.366 188.004 220.439C187.931 220.439 187.931 220.511 187.931 220.584C189.022 223.71 190.403 226.691 191.93 229.527C193.384 232.435 195.274 235.125 197.019 237.888L202.181 246.176L207.489 254.392C207.489 254.464 207.561 254.464 207.634 254.464C207.707 254.464 207.707 254.392 207.707 254.319L203.199 245.667L198.546 236.943Z" fill="white"/>
<path d="M87.3815 48.0573C88.9083 50.8928 90.2897 53.8736 92.0346 56.6364C93.7795 59.3992 95.6698 62.0892 97.7782 64.5611C97.7782 64.5611 97.8509 64.6339 97.9236 64.5611C97.9963 64.5611 97.9963 64.4884 97.9963 64.4157C96.9058 61.2895 95.5244 58.3086 93.9976 55.4731C92.5435 52.565 90.6532 49.8749 88.9083 47.1122L83.7463 38.8239L78.4389 30.6083C78.4389 30.5356 78.3662 30.5356 78.2935 30.5356C78.2208 30.5356 78.2208 30.6083 78.2208 30.6811L82.7285 39.3328L87.3815 48.0573Z" fill="white"/>
<path d="M230.027 191.43C227.119 189.903 224.21 188.522 221.084 187.431C221.011 187.431 221.011 187.431 220.939 187.431C220.866 187.504 220.866 187.577 220.939 187.577C223.411 189.758 226.101 191.575 228.863 193.32C231.626 195.065 234.534 196.446 237.443 197.973L246.094 202.554L254.746 207.061C254.819 207.061 254.892 207.061 254.892 206.989C254.892 206.916 254.892 206.843 254.892 206.843L246.676 201.536L238.388 196.374C235.552 194.774 232.862 192.957 230.027 191.43Z" fill="white"/>
<path d="M55.9734 93.643C58.8816 95.1698 61.7897 96.5511 64.916 97.6417C64.9887 97.6417 64.9887 97.6417 65.0614 97.6417C65.1341 97.569 65.1341 97.4963 65.0614 97.4963C62.5895 95.3152 59.8994 93.4976 57.1367 91.7527C54.3739 90.0078 51.4658 88.6264 48.5576 87.0996L39.9058 82.5192L31.254 78.0116C31.1813 78.0116 31.1086 78.0116 31.1086 78.0843C31.1086 78.157 31.1086 78.2297 31.1086 78.2297L39.3242 83.5371L47.6124 88.6991C50.3752 90.2259 53.0652 92.1162 55.9734 93.643Z" fill="white"/>
<path d="M141.91 26.4643C141.764 30.8265 141.473 35.2615 141.619 39.6237C141.764 43.986 142.055 48.4209 142.782 52.7831C142.782 52.8559 142.855 52.8559 142.927 52.9286C143 52.9286 143.073 52.8559 143.073 52.7831C143.8 48.4209 144.091 43.986 144.236 39.6237C144.454 35.2615 144.091 30.8265 143.945 26.4643L143.582 13.3048L143.073 0.145408C143.073 0.072704 143 -5.69992e-08 142.927 -6.01772e-08C142.855 -6.33552e-08 142.782 0.072704 142.782 0.145408L142.273 13.3048L141.91 26.4643Z" fill="white"/>
<path d="M143.145 284.927L143.654 271.768L144.018 258.608C144.163 254.246 144.454 249.811 144.309 245.449C144.163 241.087 143.872 236.652 143.145 232.289C143.145 232.217 143.073 232.217 143 232.144C142.927 232.144 142.855 232.217 142.855 232.289C142.128 236.652 141.837 241.087 141.691 245.449C141.473 249.811 141.837 254.246 141.982 258.608L142.346 271.768L142.855 284.927C142.855 285 142.927 285.073 143 285.073C143.073 285.073 143.073 285 143.145 284.927Z" fill="white"/>
<path d="M251.693 101.859C247.548 103.24 243.259 104.403 239.26 106.148C237.079 107.021 234.971 107.966 232.79 108.984C231.481 109.565 230.245 110.147 229.009 110.874C228.427 111.165 227.846 111.455 227.264 111.819C227.191 111.819 227.191 111.892 227.191 111.964C227.191 112.037 227.264 112.11 227.337 112.037C227.991 111.892 228.573 111.746 229.227 111.674C230.608 111.383 231.99 111.092 233.371 110.656C235.625 110.074 237.879 109.347 240.133 108.693C244.349 107.384 248.348 105.566 252.42 103.967L264.634 99.0958L276.848 94.0792C276.921 94.0792 276.921 94.0065 276.921 93.9338C276.921 93.8611 276.848 93.8611 276.775 93.8611L264.198 97.8598L251.693 101.859Z" fill="white"/>
<path d="M34.3075 183.214C37.6519 182.124 40.9962 181.106 44.3406 179.87C45.5039 179.434 46.7399 178.998 47.9032 178.561C51.9746 176.889 55.9733 175.144 59.8993 172.963C59.972 172.963 59.972 172.89 59.972 172.818C59.972 172.745 59.8993 172.672 59.8266 172.745C55.4644 173.545 51.2475 174.781 47.0307 176.089C45.7947 176.453 44.6315 176.889 43.4682 177.325C40.1965 178.489 36.9248 179.943 33.6532 181.251L21.4389 186.123L9.22458 191.139C9.15188 191.139 9.15187 191.212 9.15187 191.284C9.15187 191.357 9.22459 191.357 9.29729 191.357L21.8751 187.358L34.3075 183.214Z" fill="white"/>
<path d="M77.93 218.258C75.6762 220.657 73.8586 223.347 71.8229 225.892L65.7884 233.598L59.8994 241.378C59.8994 241.45 59.8994 241.523 59.8994 241.523C59.9721 241.596 60.0448 241.596 60.0448 241.523L66.6609 234.325L73.2042 227.055C75.3854 224.656 77.7119 222.329 79.6749 219.712C81.6379 217.094 83.5282 214.477 85.1277 211.569C85.1277 211.496 85.1277 211.496 85.1277 211.424C85.055 211.351 84.9823 211.351 84.9823 211.424C82.4377 213.532 80.1111 215.859 77.93 218.258Z" fill="white"/>
<path d="M200.945 73.5765C203.49 71.4681 205.816 69.1415 207.998 66.7423C210.251 64.3431 212.069 61.653 214.105 59.1084L220.139 51.4018L226.028 43.6224C226.028 43.5497 226.028 43.477 226.028 43.477C225.955 43.4043 225.883 43.4043 225.883 43.477L219.267 50.6747L212.723 57.9451C210.542 60.3444 208.216 62.6709 206.253 65.2882C204.29 67.9056 202.399 70.5229 200.8 73.4311C200.8 73.5038 200.8 73.5038 200.8 73.5765C200.8 73.6492 200.873 73.6492 200.945 73.5765Z" fill="white"/>
<path d="M120.535 269.805C120.607 269.805 120.68 269.805 120.68 269.732L122.861 260.208L124.897 250.684C125.551 247.485 126.424 244.358 126.787 241.087C127.223 237.888 127.514 234.616 127.441 231.272C127.441 231.199 127.441 231.199 127.369 231.199C127.296 231.199 127.223 231.199 127.223 231.272C126.06 234.398 125.26 237.524 124.533 240.723C123.806 243.922 123.515 247.121 123.079 250.393L121.698 260.062L120.462 269.732C120.462 269.732 120.462 269.732 120.535 269.805Z" fill="white"/>
<path d="M165.393 15.2679C165.32 15.2679 165.248 15.2679 165.248 15.3406L163.066 24.8649L161.031 34.3891C160.376 37.5881 159.504 40.7144 159.14 43.986C158.704 47.185 158.413 50.4567 158.486 53.8011C158.486 53.8738 158.486 53.8738 158.559 53.8738C158.632 53.8738 158.704 53.8738 158.704 53.8011C159.867 50.6748 160.667 47.5485 161.394 44.3496C162.121 41.1506 162.412 37.9516 162.848 34.6799L164.23 25.0103L165.538 15.4134C165.538 15.3406 165.466 15.2679 165.393 15.2679Z" fill="white"/>
<path d="M220.212 205.825C217.594 203.862 214.977 201.972 212.069 200.372C211.996 200.372 211.996 200.372 211.924 200.372C211.851 200.445 211.851 200.518 211.924 200.518C214.032 203.062 216.358 205.389 218.758 207.57C221.157 209.824 223.847 211.641 226.392 213.677L234.098 219.712L241.878 225.601C241.95 225.601 242.023 225.601 242.023 225.601C242.096 225.528 242.096 225.455 242.023 225.455L234.825 218.839L227.555 212.296C225.083 210.115 222.756 207.788 220.212 205.825Z" fill="white"/>
<path d="M65.7882 79.2474C68.4055 81.2104 71.0229 83.1007 73.9311 84.7002C74.0038 84.7002 74.0038 84.7002 74.0765 84.7002C74.1492 84.6275 74.1492 84.5548 74.0765 84.5548C71.9681 82.0101 69.6415 79.6836 67.2423 77.5025C64.843 75.2486 62.153 73.431 59.6084 71.3953L51.9017 65.3609L44.1224 59.4719C44.0497 59.4719 43.977 59.4719 43.977 59.4719C43.9043 59.5446 43.9043 59.6173 43.977 59.6173L51.1747 66.2333L58.4451 72.7767C60.8443 74.9578 63.1709 77.2844 65.7882 79.2474Z" fill="white"/>
<path d="M270.159 164.82L260.635 162.639L251.038 160.676C247.839 160.022 244.713 159.149 241.441 158.786C238.242 158.349 234.971 158.059 231.626 158.131C231.554 158.131 231.554 158.131 231.554 158.204C231.554 158.277 231.554 158.349 231.626 158.349C234.753 159.513 237.879 160.312 241.078 161.039C244.277 161.766 247.476 162.057 250.747 162.493L260.417 163.875L270.087 165.111C270.159 165.111 270.232 165.111 270.232 165.038C270.232 164.893 270.232 164.82 270.159 164.82Z" fill="white"/>
<path d="M54.301 126.796C51.1747 125.633 48.0485 124.833 44.8495 124.106C41.6505 123.379 38.4515 123.088 35.1799 122.652L25.5102 121.27L15.8406 120.034C15.7679 120.034 15.6952 120.034 15.6952 120.107C15.6952 120.18 15.6952 120.253 15.7679 120.253L25.2921 122.434L34.8163 124.469C38.0153 125.124 41.1416 125.996 44.4133 126.36C47.6122 126.796 50.8839 127.087 54.2283 127.014C54.301 127.014 54.301 127.014 54.301 126.941C54.3737 126.869 54.3737 126.796 54.301 126.796Z" fill="white"/>
<path d="M106.503 46.3126C108.175 50.384 109.92 54.3827 112.101 58.3087C112.101 58.3814 112.174 58.3814 112.246 58.3814C112.319 58.3814 112.392 58.3087 112.319 58.236C111.519 53.8738 110.283 49.657 108.975 45.4401C107.666 41.2233 105.848 37.2246 104.249 33.1531L99.3777 20.8662L94.3611 8.65187C94.3611 8.57916 94.2884 8.57916 94.2157 8.57916C94.143 8.57916 94.143 8.65187 94.143 8.72457L98.1417 21.3024L102.286 33.8075C103.667 38.0243 104.83 42.2411 106.503 46.3126Z" fill="white"/>
<path d="M179.425 238.76C177.753 234.689 176.008 230.69 173.827 226.764C173.827 226.691 173.754 226.691 173.681 226.691C173.609 226.691 173.536 226.764 173.609 226.837C174.408 231.199 175.644 235.416 176.953 239.633C178.262 243.85 180.079 247.848 181.679 251.92L186.55 264.134L191.566 276.348C191.566 276.421 191.639 276.421 191.712 276.421C191.785 276.421 191.785 276.348 191.785 276.276L187.786 263.698L183.642 251.193C182.26 247.049 181.097 242.832 179.425 238.76Z" fill="white"/>
<path d="M229.227 173.472C228.573 173.327 227.991 173.181 227.337 173.108C227.264 173.108 227.191 173.108 227.191 173.181C227.119 173.254 227.191 173.327 227.264 173.399C227.846 173.69 228.427 173.981 228.936 174.344C230.172 175.071 231.481 175.653 232.717 176.235C234.825 177.253 237.006 178.125 239.188 179.07C243.259 180.742 247.476 181.906 251.62 183.36L264.125 187.504L276.703 191.503C276.776 191.503 276.848 191.503 276.848 191.43C276.848 191.357 276.848 191.284 276.776 191.284L264.634 186.122L252.42 181.251C248.348 179.652 244.35 177.834 240.133 176.526C237.879 175.799 235.625 175.144 233.371 174.563C231.99 174.054 230.609 173.763 229.227 173.472Z" fill="white"/>
<path d="M59.754 112.328C59.8267 112.328 59.8994 112.328 59.8994 112.255C59.9721 112.182 59.8994 112.11 59.8267 112.037C55.9734 109.856 51.902 108.111 47.8305 106.439C46.6673 105.93 45.504 105.494 44.268 105.13C40.9964 103.894 37.5793 102.949 34.2349 101.786L21.7298 97.6415L9.15197 93.6428C9.07926 93.6428 9.00657 93.6428 9.00657 93.7155C9.00657 93.7882 9.00655 93.8609 9.07926 93.8609L21.2936 98.8775L33.5078 103.749C36.7795 105.057 39.9785 106.439 43.3229 107.675C44.4861 108.111 45.7221 108.547 46.8854 108.911C51.1022 110.292 55.3191 111.528 59.754 112.328Z" fill="white"/>
<path d="M73.277 58.0178L66.7336 50.7473L60.1175 43.5496C60.0448 43.4769 60.0448 43.4769 59.9721 43.5496C59.8994 43.6223 59.8994 43.6951 59.9721 43.6951L65.8612 51.4744L71.8956 59.181C73.9313 61.7257 75.7489 64.4157 78.0027 66.8149C80.1839 69.2142 82.5104 71.5407 85.055 73.6491C85.055 73.6491 85.1277 73.6491 85.2004 73.6491C85.2731 73.6491 85.2731 73.5764 85.2731 73.5037C83.6737 70.5956 81.7834 67.9782 79.8203 65.3609C77.7119 62.7435 75.3854 60.417 73.277 58.0178Z" fill="white"/>
<path d="M206.253 219.712C208.216 222.329 210.542 224.583 212.723 227.055L219.267 234.325L225.883 241.523C225.955 241.596 225.955 241.596 226.028 241.523C226.101 241.45 226.101 241.378 226.028 241.378L220.139 233.598L214.105 225.892C212.069 223.347 210.251 220.657 207.997 218.258C205.816 215.858 203.49 213.532 200.945 211.423C200.945 211.423 200.872 211.423 200.8 211.423C200.727 211.423 200.727 211.496 200.727 211.569C202.399 214.477 204.29 217.167 206.253 219.712Z" fill="white"/>
<path d="M124.824 34.4617L122.788 24.9375L120.607 15.4133C120.607 15.3406 120.535 15.3406 120.462 15.3406C120.389 15.3406 120.389 15.4133 120.389 15.486L121.625 25.1556L123.007 34.8253C123.443 38.0242 123.734 41.2959 124.461 44.4949C125.188 47.6939 125.987 50.8202 127.151 53.9464C127.151 54.0191 127.223 54.0191 127.223 54.0191C127.296 54.0191 127.369 53.9464 127.369 53.8737C127.442 50.5293 127.078 47.3304 126.714 44.0587C126.351 40.787 125.479 37.6607 124.824 34.4617Z" fill="white"/>
<path d="M162.921 250.247C162.485 247.048 162.194 243.777 161.467 240.578C160.74 237.379 159.94 234.252 158.777 231.126C158.777 231.053 158.704 231.053 158.704 231.053C158.632 231.053 158.559 231.126 158.559 231.199C158.486 234.543 158.85 237.742 159.213 241.014C159.577 244.213 160.449 247.412 161.103 250.611L163.139 260.135L165.32 269.659C165.32 269.732 165.393 269.732 165.466 269.732C165.538 269.732 165.538 269.659 165.538 269.587L164.302 259.917L162.921 250.247Z" fill="white"/>
<path d="M226.319 71.3955C223.774 73.4312 221.084 75.2488 218.685 77.5026C216.286 79.6837 213.959 82.0103 211.851 84.5549C211.851 84.5549 211.851 84.6276 211.851 84.7003C211.851 84.773 211.924 84.773 211.996 84.773C214.904 83.1735 217.522 81.2832 220.139 79.3202C222.757 77.3572 225.01 75.0307 227.482 72.8496L234.753 66.3062L241.95 59.6174C242.023 59.5447 242.023 59.5447 241.95 59.472C241.878 59.3993 241.805 59.3993 241.805 59.472L234.026 65.361L226.319 71.3955Z" fill="white"/>
<path d="M59.6085 213.677C62.1531 211.642 64.8432 209.824 67.2424 207.57C69.6416 205.389 71.9682 203.062 74.0766 200.518C74.0766 200.518 74.0766 200.445 74.0766 200.372C74.0766 200.3 74.0039 200.3 73.9312 200.3C71.023 201.899 68.4057 203.79 65.7883 205.753C63.171 207.716 60.9172 210.042 58.4452 212.223L51.1748 218.767L43.9771 225.383C43.9044 225.455 43.9044 225.455 43.9771 225.528C44.0498 225.601 44.1225 225.601 44.1225 225.528L51.9019 219.639L59.6085 213.677Z" fill="white"/>
<path d="M251.038 124.397L260.563 122.361L270.087 120.18C270.159 120.18 270.16 120.107 270.16 120.034C270.16 119.962 270.087 119.962 270.014 119.962L260.344 121.198L250.675 122.579C247.476 123.015 244.204 123.306 241.005 124.033C237.806 124.76 234.68 125.56 231.554 126.723C231.481 126.723 231.481 126.796 231.481 126.796C231.481 126.869 231.554 126.941 231.626 126.941C234.971 127.014 238.17 126.65 241.441 126.287C244.713 125.923 247.839 125.051 251.038 124.397Z" fill="white"/>
<path d="M35.2527 162.421C38.4517 161.985 41.7234 161.694 44.9223 160.967C48.1213 160.24 51.2476 159.44 54.3739 158.277C54.4466 158.277 54.4466 158.204 54.4466 158.204C54.4466 158.131 54.3739 158.059 54.3012 158.059C50.9568 157.986 47.7578 158.349 44.4861 158.713C41.2871 159.076 38.0881 159.949 34.8892 160.603L25.3649 162.639L15.8407 164.82C15.768 164.82 15.768 164.893 15.768 164.965C15.768 165.038 15.8407 165.038 15.9134 165.038L25.583 163.802L35.2527 162.421Z" fill="white"/>
<path d="M94.4337 276.348L99.4503 264.134L104.321 251.919C105.921 247.848 107.739 243.849 109.047 239.632C110.356 235.416 111.592 231.199 112.392 226.837C112.392 226.764 112.392 226.691 112.319 226.691C112.246 226.618 112.173 226.691 112.101 226.764C109.92 230.617 108.175 234.689 106.503 238.76C104.83 242.831 103.667 247.048 102.213 251.192L98.0689 263.698L94.0702 276.275C94.0702 276.348 94.0702 276.421 94.1429 276.421C94.2883 276.493 94.361 276.421 94.4337 276.348Z" fill="white"/>
<path d="M191.566 8.65187L186.55 20.8661L181.679 33.0804C180.079 37.1519 178.262 41.1506 176.953 45.3674C175.644 49.5843 174.408 53.8011 173.609 58.1633C173.609 58.236 173.609 58.3087 173.681 58.3087C173.754 58.3814 173.827 58.3087 173.899 58.236C176.081 54.3827 177.825 50.3113 179.498 46.2399C181.17 42.1684 182.333 37.9516 183.787 33.8075L187.931 21.3024L191.785 8.72457C191.785 8.65187 191.785 8.57916 191.712 8.57916C191.639 8.57916 191.566 8.57916 191.566 8.65187Z" fill="white"/>
<path d="M258.527 131.376C254.165 131.667 249.73 131.667 245.367 132.249C243.041 132.539 240.714 132.903 238.388 133.266C237.006 133.485 235.625 133.775 234.244 134.139C233.589 134.284 233.008 134.43 232.353 134.575C232.281 134.575 232.281 134.648 232.281 134.721C232.281 134.793 232.353 134.866 232.426 134.866C233.08 134.939 233.735 134.939 234.389 134.939C235.843 135.084 237.225 135.084 238.679 135.084C241.005 135.084 243.404 135.011 245.731 134.939C250.093 134.721 254.455 133.993 258.818 133.557L271.904 132.03L284.991 130.358C285.064 130.358 285.137 130.286 285.137 130.213C285.137 130.14 285.064 130.067 284.991 130.067L271.832 130.649L258.527 131.376Z" fill="white"/>
<path d="M27.4733 153.696C30.9631 153.478 34.5256 153.406 38.0154 153.115C39.2513 153.042 40.56 152.897 41.796 152.751C46.1582 152.17 50.5205 151.515 54.81 150.425C54.8827 150.425 54.8827 150.352 54.8827 150.279C54.8827 150.207 54.81 150.134 54.7373 150.134C50.3024 149.77 45.8674 149.916 41.5052 150.061C40.2692 150.134 38.9605 150.207 37.7246 150.352C34.2348 150.643 30.745 151.152 27.2552 151.588L14.1684 153.115L1.0817 154.787C1.00899 154.787 0.9363 154.86 0.9363 154.932C0.9363 155.005 1.00899 155.078 1.0817 155.078L14.2411 154.496L27.4733 153.696Z" fill="white"/>
<path d="M52.0473 101.349C55.0282 102.585 58.0818 103.749 61.3535 104.548C61.4262 104.548 61.4262 104.548 61.4989 104.476C61.5716 104.403 61.4989 104.33 61.4989 104.33C58.8088 102.367 55.9733 100.768 53.0652 99.241C50.157 97.7142 47.1035 96.6237 44.1226 95.315L35.1073 91.5344L26.092 87.8265C26.0193 87.8265 25.9466 87.8265 25.9466 87.8992C25.9466 87.9719 25.9466 88.0446 26.0193 88.0446L34.6711 92.5522L43.3955 96.9872C46.1583 98.514 48.9938 100.186 52.0473 101.349Z" fill="white"/>
<path d="M233.953 183.65C230.972 182.414 227.919 181.251 224.647 180.451C224.574 180.451 224.574 180.451 224.501 180.524C224.429 180.597 224.501 180.67 224.501 180.67C227.191 182.633 230.027 184.232 232.935 185.759C235.843 187.286 238.897 188.376 241.878 189.685L250.893 193.465L259.908 197.173C259.981 197.173 260.054 197.173 260.054 197.101C260.054 197.028 260.054 196.955 259.981 196.955L251.329 192.448L242.605 188.013C239.769 186.559 236.934 184.886 233.953 183.65Z" fill="white"/>
<path d="M79.3841 53.2921C81.2017 55.9821 82.8012 58.8176 84.7642 61.4349C86.7272 63.9796 88.8356 66.5242 91.2349 68.8507C91.2349 68.8507 91.3076 68.9234 91.3803 68.8507C91.453 68.8507 91.453 68.778 91.453 68.7053C90.0716 65.6517 88.4721 62.889 86.7272 60.1262C84.9823 57.3635 82.8739 54.8915 80.9109 52.2742L75.0219 44.4949L69.0601 36.7882C69.0601 36.7155 68.9874 36.7155 68.9147 36.7882C68.842 36.7882 68.842 36.8609 68.9147 36.9336L74.1494 45.2219L79.3841 53.2921Z" fill="white"/>
<path d="M206.616 231.781C204.799 229.091 203.199 226.255 201.236 223.638C199.273 221.093 197.165 218.548 194.765 216.222C194.765 216.222 194.693 216.149 194.62 216.222C194.547 216.222 194.547 216.295 194.547 216.367C195.929 219.421 197.528 222.184 199.273 224.946C201.018 227.709 203.126 230.181 205.089 232.798L210.978 240.578L216.94 248.284C216.94 248.357 217.013 248.357 217.086 248.284C217.158 248.284 217.158 248.212 217.086 248.139L211.851 239.851L206.616 231.781Z" fill="white"/>
<path d="M192.875 34.0981L188.44 42.8226C186.986 45.7308 185.314 48.5662 184.078 51.5471C182.842 54.528 181.679 57.5815 180.879 60.8532C180.879 60.9259 180.879 60.9259 180.952 60.9986C181.024 61.0713 181.097 60.9986 181.097 60.9986C183.06 58.3086 184.66 55.4731 186.186 52.565C187.713 49.6568 188.804 46.6032 190.112 43.6224L193.893 34.6071L197.601 25.5918C197.601 25.5191 197.601 25.4464 197.528 25.4464C197.456 25.4464 197.383 25.4463 197.383 25.5191L192.875 34.0981Z" fill="white"/>
<path d="M93.0524 250.902L97.4874 242.177C98.9415 239.269 100.614 236.434 101.85 233.453C103.086 230.472 104.249 227.418 105.049 224.147C105.049 224.074 105.049 224.074 104.976 224.001C104.903 223.928 104.831 224.001 104.831 224.001C102.867 226.691 101.268 229.527 99.7412 232.435C98.2144 235.343 97.1239 238.397 95.8152 241.377L92.0346 250.393L88.3267 259.408C88.3267 259.481 88.3267 259.553 88.3994 259.553C88.4721 259.553 88.5448 259.553 88.5448 259.481L93.0524 250.902Z" fill="white"/>
<path d="M232.208 78.8838C229.518 80.7014 226.682 82.3009 224.065 84.2639C221.52 86.227 218.976 88.3354 216.649 90.7346C216.649 90.7346 216.577 90.8073 216.649 90.88C216.649 90.9527 216.722 90.9527 216.795 90.9527C219.848 89.5713 222.611 87.9718 225.374 86.2269C228.137 84.4821 230.608 82.3736 233.226 80.4106L241.005 74.5216L248.712 68.5599C248.785 68.5599 248.785 68.4872 248.712 68.4145C248.712 68.3417 248.639 68.3417 248.566 68.4145L240.278 73.6491L232.208 78.8838Z" fill="white"/>
<path d="M53.7195 206.116C56.4095 204.298 59.245 202.699 61.8623 200.736C64.407 198.773 66.9516 196.664 69.2782 194.265C69.2782 194.265 69.3509 194.192 69.2782 194.12C69.2782 194.047 69.2055 194.047 69.1327 194.047C66.0792 195.428 63.3164 197.028 60.5537 198.773C57.7909 200.518 55.319 202.626 52.7016 204.589L44.9223 210.478L37.2157 216.44C37.143 216.44 37.143 216.513 37.2157 216.585C37.2157 216.658 37.2884 216.658 37.3611 216.585L45.6493 211.351L53.7195 206.116Z" fill="white"/>
<path d="M154.124 258.027C153.833 253.664 153.833 249.229 153.251 244.867C152.67 240.505 152.015 236.143 150.925 231.853C150.925 231.78 150.852 231.78 150.78 231.78C150.707 231.78 150.634 231.853 150.634 231.926C150.271 236.361 150.416 240.796 150.561 245.158C150.78 249.52 151.507 253.883 151.943 258.245L153.47 271.331L155.142 284.418C155.142 284.491 155.214 284.564 155.287 284.564C155.36 284.564 155.433 284.491 155.433 284.418L154.851 271.259L154.124 258.027Z" fill="white"/>
<path d="M131.804 26.9733C132.095 31.3356 132.095 35.7705 132.676 40.1328C133.258 44.495 133.912 48.8572 135.003 53.1468C135.003 53.2195 135.075 53.2195 135.148 53.2195C135.221 53.2195 135.293 53.1468 135.293 53.0741C135.657 48.6391 135.512 44.2042 135.366 39.8419C135.148 35.4797 134.421 31.1175 133.985 26.7552L132.458 13.6685L130.786 0.581748C130.786 0.509044 130.713 0.43634 130.64 0.43634C130.568 0.43634 130.495 0.509044 130.495 0.581748L131.077 13.7412L131.804 26.9733Z" fill="white"/>
<path d="M284.846 154.787L271.759 153.115L258.672 151.588C254.31 151.079 249.948 150.352 245.586 150.206C243.259 150.061 240.933 150.061 238.533 150.061C237.152 150.061 235.698 150.061 234.244 150.206C233.589 150.206 232.935 150.279 232.281 150.279C232.208 150.279 232.208 150.352 232.135 150.352C232.135 150.424 232.135 150.497 232.208 150.497C232.862 150.643 233.444 150.788 234.098 150.933C235.48 151.297 236.861 151.588 238.243 151.806C240.569 152.242 242.896 152.533 245.222 152.824C249.584 153.405 253.947 153.405 258.382 153.696L271.541 154.423L284.7 155.005C284.773 155.005 284.846 154.932 284.846 154.859C284.991 154.859 284.919 154.787 284.846 154.787Z" fill="white"/>
<path d="M54.8827 134.866C54.8827 134.793 54.8827 134.721 54.81 134.721C50.5205 133.63 46.1582 132.976 41.796 132.394C40.56 132.249 39.2513 132.103 38.0154 132.031C34.5256 131.74 31.0358 131.667 27.4733 131.449L14.3138 130.722L1.15441 130.14C1.0817 130.14 1.00901 130.213 1.00901 130.286C1.00901 130.358 1.0817 130.431 1.15441 130.431L14.2411 132.103L27.3279 133.63C30.8177 133.994 34.3075 134.575 37.7972 134.866C39.0332 135.011 40.3419 135.084 41.5779 135.157C45.9401 135.375 50.3751 135.448 54.81 135.084C54.81 134.939 54.8827 134.866 54.8827 134.866Z" fill="white"/>
<path d="M44.0499 189.685C47.0308 188.376 50.0843 187.286 52.9925 185.759C55.9007 184.232 58.7361 182.633 61.4262 180.67C61.4989 180.67 61.4989 180.597 61.4989 180.524C61.4989 180.451 61.4262 180.451 61.3535 180.451C58.1545 181.251 55.1009 182.414 52.0473 183.65C48.9938 184.886 46.231 186.486 43.3228 188.013L34.5984 192.448L25.9466 196.955C25.8739 196.955 25.8739 197.028 25.8739 197.101C25.8739 197.173 25.9466 197.173 26.0193 197.173L35.0346 193.465L44.0499 189.685Z" fill="white"/>
<path d="M241.878 95.3877C238.897 96.6964 235.843 97.7869 232.935 99.3137C230.027 100.841 227.191 102.44 224.501 104.403C224.429 104.403 224.429 104.476 224.429 104.548C224.429 104.621 224.501 104.621 224.574 104.621C227.773 103.821 230.827 102.658 233.88 101.422C236.934 100.186 239.696 98.5867 242.605 97.0599L251.329 92.6249L260.054 88.0446C260.126 88.0446 260.126 87.9719 260.126 87.8992C260.126 87.8265 260.054 87.8265 259.981 87.8265L250.966 91.5344L241.878 95.3877Z" fill="white"/>
<path d="M75.0219 240.578L80.9109 232.798C82.8739 230.181 84.9823 227.709 86.7272 224.946C88.4721 222.183 90.1443 219.421 91.453 216.367C91.453 216.294 91.453 216.294 91.453 216.222C91.3803 216.149 91.3076 216.149 91.3076 216.222C88.9083 218.548 86.8726 221.02 84.8369 223.638C82.8012 226.182 81.2017 229.018 79.4568 231.78L74.1494 239.996L68.9147 248.284C68.9147 248.357 68.9147 248.43 68.9147 248.43C68.9874 248.502 69.0601 248.43 69.0601 248.43L75.0219 240.578Z" fill="white"/>
<path d="M210.978 44.4222L205.089 52.2015C203.126 54.8189 201.018 57.2908 199.273 60.0535C197.528 62.8163 195.856 65.5791 194.547 68.6326C194.547 68.7053 194.547 68.7053 194.547 68.778C194.62 68.8507 194.693 68.8507 194.693 68.778C197.092 66.4515 199.128 63.9796 201.163 61.3622C203.199 58.8176 204.798 55.9821 206.543 53.2194L211.923 45.0765L217.158 36.8609C217.158 36.7882 217.158 36.7155 217.158 36.7155C217.085 36.6428 217.013 36.7155 217.013 36.7155L210.978 44.4222Z" fill="white"/>
<path d="M190.112 241.45C188.804 238.469 187.713 235.416 186.186 232.508C184.66 229.599 183.06 226.764 181.097 224.074C181.097 224.001 181.024 224.001 180.952 224.001C180.879 224.001 180.879 224.074 180.879 224.147C181.679 227.346 182.842 230.399 184.078 233.453C185.314 236.506 186.913 239.269 188.44 242.177L192.875 250.902L197.383 259.553C197.383 259.626 197.456 259.626 197.528 259.626C197.601 259.626 197.601 259.553 197.601 259.481L193.893 250.465L190.112 241.45Z" fill="white"/>
<path d="M95.8152 43.6224C97.1239 46.6033 98.2144 49.6569 99.7412 52.565C101.268 55.4732 102.868 58.3087 104.831 60.9987C104.831 61.0714 104.903 61.0714 104.976 61.0714C105.049 61.0714 105.049 60.9987 105.049 60.926C104.249 57.727 103.086 54.6735 101.85 51.6199C100.614 48.5663 99.0142 45.8036 97.4874 42.8954L93.0524 34.1709L88.5448 25.4464C88.5448 25.3737 88.4721 25.3737 88.3994 25.3737C88.3267 25.3737 88.3267 25.4464 88.3267 25.5191L92.0346 34.5344L95.8152 43.6224Z" fill="white"/>
<path d="M225.374 198.846C222.611 197.101 219.848 195.429 216.795 194.12C216.722 194.12 216.722 194.12 216.649 194.12C216.577 194.193 216.577 194.265 216.649 194.265C218.976 196.665 221.448 198.7 224.065 200.736C226.61 202.772 229.445 204.371 232.208 206.116L240.424 211.423L248.712 216.658C248.785 216.658 248.857 216.658 248.857 216.658C248.93 216.585 248.857 216.513 248.857 216.513L241.151 210.551L233.371 204.662C230.681 202.699 228.137 200.591 225.374 198.846Z" fill="white"/>
<path d="M60.5538 86.2271C63.3165 87.972 66.0793 89.6442 69.1329 90.9529C69.2056 90.9529 69.2056 90.9529 69.2783 90.9529C69.351 90.8802 69.351 90.8075 69.2783 90.8075C66.9517 88.4082 64.4798 86.3725 61.8625 84.3368C59.3178 82.3011 56.4824 80.7016 53.7196 78.9567L45.504 73.6493L37.2885 68.3419C37.2158 68.3419 37.1431 68.3419 37.1431 68.3419C37.0704 68.4146 37.1431 68.4873 37.1431 68.4873L44.8497 74.4491L52.6291 80.3381C55.3191 82.3738 57.791 84.4822 60.5538 86.2271Z" fill="white"/>
<path d="M155.287 0.654272L153.615 13.741L152.088 26.8277C151.579 31.19 150.852 35.5522 150.707 39.9145C150.489 44.2767 150.416 48.7117 150.779 53.1466C150.779 53.2193 150.852 53.2193 150.852 53.292C150.925 53.292 150.998 53.292 150.998 53.2193C152.088 48.9298 152.742 44.5675 153.324 40.2053C153.906 35.843 153.906 31.4808 154.197 27.0458L154.924 13.8864L155.505 0.726976C155.505 0.654272 155.433 0.581568 155.36 0.581568C155.36 0.508864 155.287 0.581568 155.287 0.654272Z" fill="white"/>
<path d="M130.713 284.418L132.385 271.331L133.912 258.245C134.421 253.883 135.148 249.52 135.293 245.158C135.511 240.796 135.584 236.361 135.221 231.926C135.221 231.853 135.148 231.853 135.148 231.78C135.075 231.78 135.002 231.78 135.002 231.853C133.912 236.143 133.258 240.505 132.676 244.867C132.094 249.229 132.094 253.592 131.803 258.027L131.076 271.186L130.495 284.346C130.495 284.418 130.568 284.491 130.64 284.491C130.64 284.491 130.713 284.491 130.713 284.418Z" fill="white"/>
<path d="M224.283 59.6902C221.084 62.7437 217.74 65.5792 214.759 68.8509C213.16 70.5958 211.633 72.3407 210.106 74.1583C209.161 75.2488 208.288 76.3394 207.489 77.5026C207.125 78.0116 206.689 78.5205 206.325 79.0294C206.325 79.1021 206.325 79.1021 206.325 79.1748C206.398 79.2475 206.471 79.2475 206.543 79.1748C207.052 78.8113 207.561 78.3751 208.07 78.0116C209.234 77.2118 210.324 76.2667 211.415 75.3942C213.232 73.8674 214.977 72.3407 216.722 70.7412C219.994 67.7603 222.829 64.4159 225.883 61.2169L234.825 51.62L243.768 41.9504C243.841 41.8777 243.841 41.805 243.768 41.805C243.695 41.7323 243.623 41.7323 243.55 41.805L233.88 50.6748L224.283 59.6902Z" fill="white"/>
<path d="M61.6442 225.31C64.1889 222.911 66.8062 220.584 69.2782 218.112C70.1506 217.24 71.0958 216.294 71.9682 215.422C74.9491 212.223 77.8572 208.879 80.4019 205.243C80.4019 205.171 80.4019 205.171 80.4019 205.098C80.3292 205.025 80.2565 205.025 80.1838 205.098C76.5486 207.715 73.2769 210.551 70.0052 213.532C69.0601 214.404 68.1876 215.277 67.3151 216.222C64.8432 218.694 62.5167 221.311 60.1174 223.856L51.1022 233.453L42.1595 243.122C42.0868 243.195 42.0868 243.268 42.1595 243.268C42.2322 243.34 42.305 243.34 42.3777 243.268L52.0473 234.325L61.6442 225.31Z" fill="white"/>
<path d="M116.027 238.615C115.009 241.741 114.5 244.94 113.7 248.139L111.519 257.663L109.411 267.187C109.411 267.26 109.411 267.333 109.483 267.333C109.556 267.333 109.629 267.333 109.629 267.26L112.61 257.954L115.445 248.648C116.39 245.522 117.481 242.468 118.208 239.269C118.935 236.07 119.517 232.871 119.735 229.599C119.735 229.527 119.735 229.527 119.662 229.454C119.589 229.454 119.517 229.454 119.517 229.527C118.135 232.435 117.045 235.561 116.027 238.615Z" fill="white"/>
<path d="M170.482 36.4247C169.537 39.551 168.447 42.6045 167.719 45.8035C166.992 49.0025 166.411 52.2015 166.193 55.4732C166.193 55.5459 166.193 55.5459 166.265 55.6186C166.338 55.6186 166.411 55.6186 166.411 55.5459C167.865 52.565 168.955 49.5114 169.901 46.3852C170.918 43.2589 171.427 40.0599 172.227 36.8609L174.408 27.3367L176.517 17.8125C176.517 17.7398 176.517 17.6671 176.444 17.6671C176.371 17.6671 176.299 17.6671 176.299 17.7398L173.318 27.0459L170.482 36.4247Z" fill="white"/>
<path d="M174.408 257.663L172.227 248.139C171.5 244.94 170.918 241.741 169.901 238.615C168.883 235.489 167.865 232.435 166.411 229.454C166.411 229.381 166.338 229.381 166.265 229.381C166.193 229.381 166.12 229.454 166.193 229.527C166.411 232.799 167.065 236.07 167.719 239.196C168.374 242.395 169.537 245.449 170.482 248.575L173.318 257.881L176.299 267.188C176.299 267.26 176.371 267.26 176.444 267.26C176.517 267.26 176.517 267.188 176.517 267.115L174.408 257.663Z" fill="white"/>
<path d="M111.519 27.4094L113.7 36.9337C114.427 40.1326 115.009 43.3316 116.027 46.4579C117.045 49.5842 118.063 52.6377 119.517 55.6186C119.517 55.6913 119.589 55.6913 119.662 55.6913C119.735 55.6913 119.807 55.6186 119.735 55.5459C119.517 52.2742 118.862 49.0025 118.208 45.8763C117.554 42.6773 116.39 39.6237 115.445 36.4974L112.61 27.1913L109.629 17.8852C109.629 17.8125 109.556 17.8125 109.484 17.8125C109.411 17.8125 109.411 17.8852 109.411 17.9579L111.519 27.4094Z" fill="white"/>
<path d="M229.954 165.911C232.935 167.365 235.989 168.455 239.115 169.4C242.241 170.418 245.44 170.927 248.639 171.727L258.163 173.908L267.688 176.016C267.76 176.016 267.833 176.016 267.833 175.944C267.833 175.871 267.833 175.798 267.76 175.798L258.454 172.817L249.148 169.982C246.022 169.037 242.968 167.946 239.769 167.219C236.57 166.492 233.371 165.911 230.1 165.692C230.027 165.692 230.027 165.692 229.954 165.765C229.881 165.838 229.881 165.911 229.954 165.911Z" fill="white"/>
<path d="M56.046 119.089C53.0652 117.635 50.0116 116.545 46.8853 115.599C43.759 114.582 40.5601 114.073 37.3611 113.273L27.8369 111.092L18.3126 108.983C18.2399 108.983 18.1672 108.983 18.1672 109.056C18.1672 109.129 18.1672 109.202 18.2399 109.202L27.5461 112.182L36.8522 115.018C39.9784 115.963 43.032 117.054 46.231 117.781C49.43 118.508 52.629 119.089 55.9006 119.307C55.9733 119.307 55.9733 119.307 56.046 119.235C56.1187 119.235 56.046 119.162 56.046 119.089Z" fill="white"/>
<path d="M249.075 115.018L258.382 112.182L267.688 109.202C267.76 109.202 267.76 109.129 267.76 109.056C267.76 108.983 267.688 108.983 267.615 108.983L258.091 111.092L248.567 113.273C245.368 114 242.169 114.582 239.042 115.599C235.916 116.617 232.862 117.635 229.882 119.089C229.809 119.089 229.809 119.162 229.809 119.235C229.809 119.307 229.882 119.38 229.954 119.307C233.226 119.089 236.498 118.435 239.624 117.781C242.896 117.126 245.949 115.963 249.075 115.018Z" fill="white"/>
<path d="M37.361 171.8C40.56 171.073 43.759 170.491 46.8852 169.473C50.0115 168.455 53.0651 167.437 56.046 165.983C56.1187 165.983 56.1187 165.911 56.1187 165.838C56.1187 165.765 56.0459 165.693 55.9732 165.765C52.7016 165.983 49.4299 166.638 46.3036 167.292C43.1046 167.946 40.0511 169.11 36.9248 170.055L27.6187 172.89L18.3125 175.871C18.2398 175.871 18.2398 175.944 18.2398 176.016C18.2398 176.089 18.3126 176.089 18.3853 176.089L27.9095 173.981L37.361 171.8Z" fill="white"/>
<path d="M69.2782 70.7411C72.4772 73.722 75.8216 76.6302 79.4568 79.1748C79.5295 79.1748 79.5294 79.1748 79.6021 79.1748C79.6749 79.1021 79.6749 79.0294 79.6021 78.9567C76.9848 75.3215 74.1494 72.0498 71.1685 68.7781C68.1876 65.5064 64.8432 62.671 61.6443 59.6174L52.0473 50.6021L42.3777 41.6595C42.305 41.5868 42.2323 41.5868 42.2323 41.6595C42.1596 41.7322 42.1596 41.8049 42.2323 41.8776L51.1022 51.62L60.1175 61.2169C63.171 64.4159 66.0792 67.7603 69.2782 70.7411Z" fill="white"/>
<path d="M216.649 214.331C213.45 211.351 210.106 208.442 206.471 205.898C206.398 205.898 206.398 205.898 206.325 205.898C206.253 205.97 206.253 206.043 206.325 206.116C208.943 209.751 211.778 213.023 214.759 216.294C217.74 219.566 221.084 222.402 224.283 225.455L233.88 234.398L243.55 243.34C243.622 243.413 243.695 243.413 243.695 243.34C243.768 243.268 243.768 243.195 243.695 243.122L234.753 233.453L225.737 223.856C222.756 220.657 219.921 217.312 216.649 214.331Z" fill="white"/>
</svg>
