<svg width="50" height="50" viewBox="0 0 50 50" fill="none" xmlns="http://www.w3.org/2000/svg">
<circle cx="25" cy="25" r="24.5" fill="url(#paint0_linear_1931_21374)" stroke="url(#paint1_linear_1931_21374)"/>
<path fill-rule="evenodd" clip-rule="evenodd" d="M20.7612 16.166C18.637 16.166 16.915 17.888 16.915 20.0122V28.9865C16.915 31.1107 18.637 32.8327 20.7612 32.8327H29.7356C31.8597 32.8327 33.5817 31.1107 33.5817 28.9865V20.0122C33.5817 17.888 31.8597 16.166 29.7356 16.166H20.7612ZM30.2484 20.3327C30.7086 20.3327 31.0817 19.9596 31.0817 19.4993C31.0817 19.0391 30.7086 18.666 30.2484 18.666C29.7881 18.666 29.415 19.0391 29.415 19.4993C29.415 19.9596 29.7881 20.3327 30.2484 20.3327ZM29.415 24.4993C29.415 26.8005 27.5496 28.666 25.2484 28.666C22.9472 28.666 21.0817 26.8005 21.0817 24.4993C21.0817 22.1982 22.9472 20.3327 25.2484 20.3327C27.5496 20.3327 29.415 22.1982 29.415 24.4993ZM25.2484 26.9993C26.6291 26.9993 27.7484 25.8801 27.7484 24.4993C27.7484 23.1186 26.6291 21.9993 25.2484 21.9993C23.8677 21.9993 22.7484 23.1186 22.7484 24.4993C22.7484 25.8801 23.8677 26.9993 25.2484 26.9993Z" fill="#163332"/>
<defs>
<linearGradient id="paint0_linear_1931_21374" x1="0" y1="25" x2="74.7692" y2="25" gradientUnits="userSpaceOnUse">
<stop stop-color="#A7843C"/>
<stop offset="0.755144" stop-color="#C8AC68"/>
<stop offset="1" stop-color="#7E673A"/>
</linearGradient>
<linearGradient id="paint1_linear_1931_21374" x1="0" y1="25" x2="74.7692" y2="25" gradientUnits="userSpaceOnUse">
<stop stop-color="#A7843C"/>
<stop offset="0.755144" stop-color="#C8AC68"/>
<stop offset="1" stop-color="#7E673A"/>
</linearGradient>
</defs>
</svg>
