<svg width="51" height="51" viewBox="0 0 51 51" fill="none" xmlns="http://www.w3.org/2000/svg">
<circle cx="25.25" cy="25.5" r="24.5" stroke="url(#paint0_linear_1931_21342)"/>
<path fill-rule="evenodd" clip-rule="evenodd" d="M21.0112 16.666C18.887 16.666 17.165 18.388 17.165 20.5122V29.4865C17.165 31.6107 18.887 33.3327 21.0112 33.3327H29.9856C32.1097 33.3327 33.8317 31.6107 33.8317 29.4865V20.5122C33.8317 18.388 32.1097 16.666 29.9856 16.666H21.0112ZM30.4984 20.8327C30.9586 20.8327 31.3317 20.4596 31.3317 19.9993C31.3317 19.5391 30.9586 19.166 30.4984 19.166C30.0381 19.166 29.665 19.5391 29.665 19.9993C29.665 20.4596 30.0381 20.8327 30.4984 20.8327ZM29.665 24.9993C29.665 27.3005 27.7996 29.166 25.4984 29.166C23.1972 29.166 21.3317 27.3005 21.3317 24.9993C21.3317 22.6982 23.1972 20.8327 25.4984 20.8327C27.7996 20.8327 29.665 22.6982 29.665 24.9993ZM25.4984 27.4993C26.8791 27.4993 27.9984 26.3801 27.9984 24.9993C27.9984 23.6186 26.8791 22.4993 25.4984 22.4993C24.1177 22.4993 22.9984 23.6186 22.9984 24.9993C22.9984 26.3801 24.1177 27.4993 25.4984 27.4993Z" fill="url(#paint1_linear_1931_21342)"/>
<defs>
<linearGradient id="paint0_linear_1931_21342" x1="0.25" y1="25.5" x2="75.0192" y2="25.5" gradientUnits="userSpaceOnUse">
<stop stop-color="#A7843C"/>
<stop offset="0.755144" stop-color="#C8AC68"/>
<stop offset="1" stop-color="#7E673A"/>
</linearGradient>
<linearGradient id="paint1_linear_1931_21342" x1="17.165" y1="24.9993" x2="42.0881" y2="24.9993" gradientUnits="userSpaceOnUse">
<stop stop-color="#A7843C"/>
<stop offset="0.755144" stop-color="#C8AC68"/>
<stop offset="1" stop-color="#7E673A"/>
</linearGradient>
</defs>
</svg>
