<svg width="53" height="28" viewBox="0 0 53 28" fill="none" xmlns="http://www.w3.org/2000/svg">
<path d="M1.07602 12.773L2.3264 8.70219L4.57046 5.44869L6.50902 3.30227L7.63026 2.43614L11.4601 0.817261H14.7215H17.6947L21.6364 2.51645L22.7907 3.42982L24.6017 5.46444L26.7969 8.70219L28.0473 12.6124L28.5119 16.5698L28.0473 19.6957L25.578 23.2044L22.6616 25.176L18.9498 26.5319L14.5609 27.0563L10.2003 26.4846L6.58933 25.1965L3.57677 23.1996L1.14059 19.6548L0.644531 16.3462L1.07602 12.773L2.3264 8.70219L4.57046 5.44869L6.50902 3.30227L7.63026 2.43614L11.4601 0.817261H17.6947L21.6364 2.51645L22.7907 3.42982" fill="url(#paint0_linear_2151_2606)"/>
<path d="M5.31543 15.5132L6.07605 14.2786L7.5343 12.7715L9.10435 10.4645L10.498 10.1763L12.1169 11.1542L12.0901 11.7416L12.0287 12.2093L12.0083 12.2707L11.7012 13.3117L11.3311 14.4723C11.3311 14.4723 11.0949 15.1148 10.8807 15.3164C10.6665 15.5179 10.8807 15.3164 10.8807 15.3164C10.8807 15.3164 10.4807 16.0801 10.2303 16.2203C9.97993 16.3589 10.2303 16.2203 10.2303 16.2203L9.74529 16.625L9.10435 17.0518L7.5343 18.0014L6.03353 16.9825L5.31543 15.5132L6.07605 14.2786L7.5343 12.7715" fill="#1A1421"/>
<path d="M23.8064 15.5132L23.0457 14.2786L21.5875 12.7715L20.0174 10.4645L18.6238 10.1763L17.0049 11.1542L17.0317 11.7416L17.0931 12.2093L17.1135 12.2707L17.4206 13.3117L17.7907 14.4723C17.7907 14.4723 18.0269 15.1148 18.2411 15.3164C18.4553 15.5179 18.2411 15.3164 18.2411 15.3164C18.2411 15.3164 18.6411 16.0801 18.8915 16.2203C19.1419 16.3589 18.8915 16.2203 18.8915 16.2203L19.3765 16.625L20.0174 17.0518L21.5875 18.0014L23.0883 16.9825L23.8064 15.5132L23.0457 14.2786L21.5875 12.7715" fill="#1A1421"/>
<path d="M11.3013 20.6249L11.7012 20.7856L12.7752 20.5619L13.7815 20.5226C13.7815 20.5226 14.3217 20.4737 14.5626 20.4785C14.8036 20.4832 15.3437 20.5226 15.3437 20.5226L16.35 20.5619L17.424 20.7856L17.824 20.6249L17.9846 21.3462L17.5437 22.0438L14.5626 23.7147L11.5816 22.0438L11.1406 21.3462L11.3013 20.6249L11.7012 20.7856L12.7752 20.5619" fill="#504B59"/>
<path d="M11.1407 21.3462L9.20215 23.3651L10.1155 23.8501L11.5171 24.4343L13.084 24.5792L14.5611 24.521L16.0398 24.5792L17.6068 24.4343L19.9217 23.3651L17.9831 21.3462L17.5422 22.0422L15.5847 23.0973L14.5611 23.7131L13.5391 23.0973L12.3391 22.4611L11.5816 22.0422L11.1407 21.3462L9.20215 23.3651Z" fill="url(#paint1_linear_2151_2606)"/>
<path d="M9.20215 23.365L9.68088 23.7776L10.4084 24.4059L11.4777 24.9492L13.2824 25.0689H15.8414L17.6461 24.9492L18.7154 24.4059L19.9217 23.365L19.0083 23.85L17.6068 24.4343L16.0398 24.5791L14.5611 24.5209L13.084 24.5791L11.5171 24.4343L10.1155 23.85L9.20215 23.365Z" fill="#27292A"/>
<path d="M14.5606 21.5697L15.4787 21.891L16.4881 21.269L17.422 20.7855L17.822 20.6249L17.3133 21.5981L16.2566 22.2831L15.5842 23.0973L14.5606 23.713L13.5385 23.0973L12.8661 22.2831L11.8094 21.5981L11.3008 20.6249L11.7008 20.7855L12.6346 21.269L13.6441 21.891L14.5606 21.5697Z" fill="#030405"/>
<path d="M21.6367 2.5165L24.2257 0L27.0052 1.25825L28.0477 3.38106L28.3988 5.94637L26.7973 8.70224L24.602 5.46449L22.791 3.42987L21.6367 2.5165Z" fill="#272530"/>
<path d="M7.63064 2.43613L4.9787 0.0078125L2.19921 1.27394L1.13309 3.30226L0.772461 5.96994L2.32677 8.70218L4.57083 5.44869L6.50939 3.30226L7.63064 2.43613Z" fill="#302F3B"/>
<path d="M7.27734 6.23462L9.10567 10.4645L11.3324 7.2913L7.27734 6.23462Z" fill="#D7D3D1"/>
<path d="M5.46777 9.69599L7.2772 6.23462L9.10552 10.4645L5.46777 9.69599Z" fill="#E1DDDB"/>
<path d="M7.53546 12.773L5.46777 9.69592L9.10552 10.4644L7.53546 12.773Z" fill="#BEBFBB"/>
<path d="M4.26465 12.7731H7.5339L6.07565 14.2786L5.31503 15.5132L4.26465 12.7731Z" fill="#C0C0BF"/>
<path d="M7.27728 6.23462L2.32617 8.7023L5.46786 9.69599L7.27728 6.23462Z" fill="#D9D9D9"/>
<path d="M11.4598 0.817261L7.62988 2.43614L11.3322 3.92588L11.4598 0.817261Z" fill="#E8E7E5"/>
<path d="M14.7219 0.817261L11.333 3.92588L11.4606 0.817261H14.7219Z" fill="#EDEDED"/>
<path d="M17.6949 0.817261L17.7752 3.99044L14.7217 0.817261H17.6949Z" fill="#EEEEEE"/>
<path d="M11.333 3.92588L14.5723 3.99044H17.7754L14.7219 0.817261L11.333 3.92588Z" fill="#E9E7E8"/>
<path d="M21.636 2.51645L17.7746 3.99044L17.6943 0.817261L21.636 2.51645Z" fill="#E8E7E5"/>
<path d="M14.5527 3.99048H17.7747L17.9354 7.35579L14.5527 3.99048Z" fill="#E0E0DE"/>
<path d="M22.0053 6.23454L17.7754 3.99048L17.936 7.35579L22.0053 6.23454Z" fill="#E1E1E0"/>
<path d="M11.3322 7.29126L12.118 11.1542L10.4992 10.1763L9.10547 10.4644L11.3322 7.29126Z" fill="#D9D9D9"/>
<path d="M14.5534 7.5322L12.1188 11.1542L11.333 7.29126L14.5534 7.5322Z" fill="#D6D6D3"/>
<path d="M17.0566 11.1637L17.9354 7.35583L14.5527 7.53221L17.0566 11.1637Z" fill="#D6D6D3"/>
<path d="M20.0692 10.4739L17.9354 7.35583L17.0566 11.1637L18.6755 10.1889L20.0692 10.4739Z" fill="#D9D9D9"/>
<path d="M22.0048 6.23462L20.0694 10.4739L17.9355 7.35586L22.0048 6.23462Z" fill="#E1DDDB"/>
<path d="M23.6913 9.70539L20.0693 10.4739L22.0095 6.24402L23.6913 9.70539Z" fill="#D7D3D1"/>
<path d="M26.7969 8.7023L23.6883 9.69599L22.0049 6.23462L26.7969 8.7023Z" fill="#D9D9D9"/>
<path d="M21.641 12.7809L20.0693 10.4739L23.6882 9.69592L21.641 12.7809Z" fill="#BEBFBB"/>
<path d="M28.0472 12.6125L26.7969 8.70227L25.1465 12.7731L28.0472 12.6125Z" fill="#CECCD1"/>
<path d="M23.8605 15.5226L23.0794 14.2786L21.6416 12.7809L25.1471 12.7731L23.8605 15.5226Z" fill="#C0C0BF"/>
<path d="M28.5118 16.5699L28.0473 12.6124L26.7969 16.5069L28.5118 16.5699Z" fill="#B9B8BF"/>
<path d="M24.7611 19.1824L26.7973 16.5068L23.8604 15.5226L24.7611 19.1824Z" fill="#B3B3B2"/>
<path d="M28.0473 19.6958L28.5118 16.5698L26.7969 16.5068L28.0473 19.6958Z" fill="#B0AEB3"/>
<path d="M24.7607 19.1824L28.0473 19.6958L26.7969 16.5068L24.7607 19.1824Z" fill="#A4A2A2"/>
<path d="M25.5781 23.2044L28.0473 19.6957L24.7607 19.1824L25.5781 23.2044Z" fill="#A9A9A9"/>
<path d="M21.6416 18.0092L23.1282 16.9541L23.8605 15.5226L24.7612 19.1824L21.6416 18.0092Z" fill="#BCBEBB"/>
<path d="M22.6611 21.3461L24.7603 19.1824L25.5776 23.2044L22.6611 21.3461Z" fill="#B4B5B5"/>
<path d="M22.6611 25.1761V21.3462L25.5776 23.2044L22.6611 25.1761Z" fill="#ACACAC"/>
<path d="M19.9219 23.3651L22.662 21.3462V25.1761L19.9219 23.3651Z" fill="#B2B0B6"/>
<path d="M20.0693 17.0596L21.6409 18.0092L18.4961 18.7887L20.0693 17.0596Z" fill="#C7C6C9"/>
<path d="M24.7612 19.1824L22.6621 21.3461L21.6416 18.0092L24.7612 19.1824Z" fill="#C7C6C9"/>
<path d="M18.4961 18.7887L21.6409 18.0092L22.6614 21.3461L18.4961 18.7887Z" fill="#C3C3C3"/>
<path d="M17.9824 21.3462H22.6611L19.921 23.3651L17.9824 21.3462Z" fill="#BBB9BE"/>
<path d="M18.4963 18.7887L17.8223 20.6249L17.9829 21.3461H22.6616L18.4963 18.7887Z" fill="#CECCD1"/>
<path d="M16.3486 20.5603L18.4966 18.7887L17.8226 20.6249L17.4226 20.7855L16.3486 20.5603Z" fill="#DEDDE1"/>
<path d="M14.5528 12.195L12.1182 11.1541L14.5528 7.5321L17.0567 11.1636L14.5528 12.195Z" fill="#CFCDCD"/>
<path d="M11.333 14.4707L14.5534 12.1951L12.1173 11.1542C12.1173 11.1542 12.1487 11.94 11.8763 12.7731C11.6054 13.6061 11.333 14.4707 11.333 14.4707Z" fill="#D3D1D5"/>
<path d="M17.0572 11.1636C17.0572 11.1636 17.0698 12.0706 17.3249 12.8124C17.569 13.5194 17.8415 14.4801 17.8415 14.4801L14.5518 12.1951L17.0572 11.1636Z" fill="#D3D1D5"/>
<path d="M14.5534 15.4486L11.333 14.4706L14.5534 12.1951L17.8432 14.4801L14.5534 15.4486Z" fill="#DCDBE0"/>
<path d="M9.10547 17.0518L14.5542 15.4486L11.3338 14.4707C11.3338 14.4707 10.7889 15.5919 10.3889 16.0565C9.98892 16.5211 9.10547 17.0518 9.10547 17.0518Z" fill="#DDDDE4"/>
<path d="M20.0818 17.0675L14.5527 15.4486L17.8425 14.4801C17.8425 14.4801 18.1669 15.1037 18.7196 15.8328C19.2724 16.562 20.0818 17.0675 20.0818 17.0675Z" fill="#DEDDE2"/>
<path d="M10.6602 18.7887H18.4963L14.553 15.4486L10.6602 18.7887Z" fill="#DDDCE1"/>
<path d="M20.0818 17.0675L18.496 18.7887L14.5527 15.4486L20.0818 17.0675Z" fill="#DAD9DE"/>
<path d="M10.6598 18.7887L14.5526 15.4486L9.10547 17.0517L10.6598 18.7887Z" fill="#DAD9DD"/>
<path d="M16.348 20.5603L14.5527 18.7887H18.496L16.348 20.5603Z" fill="#D0D0D3"/>
<path d="M12.7754 20.5603L14.5549 18.7887L16.3501 20.5603C16.3501 20.5603 14.9281 20.4958 14.6037 20.4958C14.2777 20.4958 12.7754 20.5603 12.7754 20.5603Z" fill="#D9DBDC"/>
<path d="M10.6602 18.7887L12.7751 20.5603L14.553 18.7887H10.6602Z" fill="#D0D0D3"/>
<path d="M11.3011 20.6249L10.6602 18.7887L12.7751 20.5603L11.7011 20.7855L11.3011 20.6249Z" fill="#DEDDE2"/>
<path d="M2.32655 8.70227L1.07617 12.7731H4.2651L2.32655 8.70227Z" fill="#CECCD1"/>
<path d="M5.31511 15.5132L2.32617 16.5069L4.26473 12.7731L5.31511 15.5132Z" fill="#CAC8C8"/>
<path d="M1.07617 12.7731L2.32655 16.5069L4.2651 12.7731H1.07617Z" fill="#C8C6CC"/>
<path d="M0.644531 16.3463L1.07602 12.7731L2.3264 16.5069L0.644531 16.3463Z" fill="#BAB8BD"/>
<path d="M1.14059 19.6548L0.644531 16.3462L2.3264 16.5068L1.14059 19.6548Z" fill="#B0AEB3"/>
<path d="M4.40987 19.1178L2.32644 16.5068L1.14062 19.6548L4.40987 19.1178Z" fill="#A4A2A2"/>
<path d="M5.31511 15.5132L4.40961 19.1179L2.32617 16.5069L5.31511 15.5132Z" fill="#B3B3B2"/>
<path d="M7.53452 17.9998L4.41016 19.1179L5.31566 15.5132L6.03376 16.9809L7.53452 17.9998Z" fill="#BCBEBB"/>
<path d="M3.57681 23.1998L1.14062 19.6549L4.40987 19.1179L3.57681 23.1998Z" fill="#A9A9A9"/>
<path d="M6.51412 21.3462L4.41021 19.1179L3.57715 23.1998L6.51412 21.3462Z" fill="#B4B5B5"/>
<path d="M7.53418 17.9998L10.6601 18.7887L9.10581 17.0518L7.53418 17.9998Z" fill="#C7C6C9"/>
<path d="M6.51406 21.3462L7.53452 17.9998L4.41016 19.1179L6.51406 21.3462Z" fill="#C7C6C9"/>
<path d="M10.6601 18.7887L6.51367 21.3462L7.53413 17.9998L10.6601 18.7887Z" fill="#C3C3C3"/>
<path d="M11.1404 21.3461H6.51367L10.6601 18.7887L11.301 20.6249L11.1404 21.3461Z" fill="#CECCD1"/>
<path d="M9.20182 23.3651L6.51367 21.3462H11.1404L9.20182 23.3651Z" fill="#BBB9BE"/>
<path d="M6.58926 25.1965L9.20182 23.3651L6.51367 21.3462L6.58926 25.1965Z" fill="#B2B0B6"/>
<path d="M3.57715 23.1997L6.51412 21.3462L6.58971 25.1965L3.57715 23.1997Z" fill="#ACACAC"/>
<path d="M10.1998 26.4846L6.58887 25.1965L9.20143 23.365L10.1998 26.4846Z" fill="#A4A2A7"/>
<path d="M22.662 25.176L18.9502 26.5319L19.9218 23.365L22.662 25.176Z" fill="#A4A1A7"/>
<path d="M15.8408 25.0689L18.9494 26.5319L19.9211 23.365L18.7148 24.4059L17.6455 24.9492L15.8408 25.0689Z" fill="#9C9A9C"/>
<path d="M14.5605 27.0563L15.8408 25.069L18.9495 26.5319L14.5605 27.0563Z" fill="#A4A1A3"/>
<path d="M14.5605 25.069H15.8408L14.5605 27.0563V25.069Z" fill="#99999B"/>
<path d="M10.2002 26.4847L13.282 25.069L14.5608 27.0563L10.2002 26.4847Z" fill="#A4A1A3"/>
<path d="M9.20215 23.365L10.4084 24.4059L11.4777 24.9492L13.2824 25.0689L10.2006 26.4846L9.20215 23.365Z" fill="#9C9A9C"/>
<path d="M21.6367 2.5165L24.2257 0L24.9863 2.21257L21.6367 2.5165Z" fill="#423E4F"/>
<path d="M27.0051 1.25825L24.2256 0L24.9862 2.21257L27.0051 1.25825Z" fill="#333241"/>
<path d="M28.0477 3.38099L27.0052 1.25818L24.9863 2.2125L28.0477 3.38099Z" fill="#21202C"/>
<path d="M22.791 3.42983L24.9863 2.21252L21.6367 2.51646L22.791 3.42983Z" fill="#343342"/>
<path d="M24.6016 5.46454L28.0472 3.3811L28.3984 5.94642L24.6016 5.46454Z" fill="#1D1B2D"/>
<path d="M24.9858 2.21252L24.6016 5.46445L28.0472 3.38101L24.9858 2.21252Z" fill="#272530"/>
<path d="M22.791 3.42983L24.9863 2.21252L24.602 5.46445L22.791 3.42983Z" fill="#302F3B"/>
<path d="M28.3984 5.94636L26.7968 8.70223L24.6016 5.46448L28.3984 5.94636Z" fill="#0A0B0D"/>
<path d="M7.63032 2.43613L4.97838 0.0078125L4.16895 2.17944L7.63032 2.43613Z" fill="#423E4F"/>
<path d="M2.19922 1.27394L4.97871 0.0078125L4.16927 2.17944L2.19922 1.27394Z" fill="#333241"/>
<path d="M6.50907 3.30226L4.16895 2.17944L7.63032 2.43613L6.50907 3.30226Z" fill="#343342"/>
<path d="M4.57052 5.44869L4.16895 2.17944L6.50907 3.30226L4.57052 5.44869Z" fill="#302F3B"/>
<path d="M2.19894 1.27393L1.13281 3.30225L4.16899 2.17943L2.19894 1.27393Z" fill="#21202C"/>
<path d="M4.57056 5.44869L1.13281 3.30226L4.16899 2.17944L4.57056 5.44869Z" fill="#272530"/>
<path d="M0.772461 5.97005L1.13309 3.30237L4.57083 5.4488L0.772461 5.97005Z" fill="#1D1B2D"/>
<path d="M2.32677 8.70222L0.772461 5.96998L4.57083 5.44873L2.32677 8.70222Z" fill="#0A0B0D"/>
<path d="M10.1465 10.9196L10.4992 10.1763L11.3669 10.7007L10.1465 10.9196Z" fill="#4D4B61"/>
<path d="M10.6914 11.7415L10.1465 10.9195L11.3669 10.7006L10.6914 11.7415Z" fill="#464355"/>
<path d="M11.082 12.3872L11.367 10.7006L10.6914 11.7415L11.082 12.3872Z" fill="#373547"/>
<path d="M12.1184 11.1541C12.1184 11.1541 12.0947 12.0879 12.0097 12.2706C12.0097 12.2706 11.9152 11.9021 11.7656 11.4943C11.6601 11.2092 11.5325 10.9037 11.3672 10.7006L12.1184 11.1541Z" fill="#23222B"/>
<path d="M11.082 12.3873L12.0112 12.2692C12.0112 12.2692 11.6867 10.9731 11.3686 10.6991L11.082 12.3873Z" fill="#27252F"/>
<path d="M10.9531 13.0046L11.0807 12.3873L12.0098 12.2692C12.0098 12.2692 11.8114 13.0818 11.7027 13.3101L10.9531 13.0046Z" fill="#18171D"/>
<path d="M9.47754 11.5621L9.51691 11.0219L10.1452 10.9196L10.6901 11.7416C10.6901 11.7416 10.2287 11.3747 10.0051 11.3668C9.78147 11.3589 9.47754 11.5621 9.47754 11.5621Z" fill="#454156"/>
<path d="M9.10556 10.4644L8.76855 12.195L9.47721 11.562L9.51815 11.0218L9.10556 10.4644Z" fill="#302B3C"/>
<path d="M7.4873 14.1431L8.29202 13.0613L7.53455 12.7731L7.4873 14.1431Z" fill="#313241"/>
<path d="M6.07617 14.2786L7.48717 14.1431L7.53442 12.7731L6.07617 14.2786Z" fill="#1E1F29"/>
<path d="M5.31543 15.5131L6.64612 15.1005L7.48705 14.1431L6.07605 14.2785L5.31543 15.5131Z" fill="#121015"/>
<path d="M8.29202 13.0613L8.42902 13.9258L7.4873 14.1432L8.29202 13.0613Z" fill="#3D3C4F"/>
<path d="M8.10462 14.8549L7.4873 14.1431L8.42902 13.9258L8.10462 14.8549Z" fill="#30313D"/>
<path d="M7.75513 15.6533L6.64648 15.1005L7.48742 14.1431L7.75513 15.6533Z" fill="#181720"/>
<path d="M6.0332 16.9808L9.1056 17.0517L7.53397 17.9997L6.0332 16.9808Z" fill="#030505"/>
<path d="M6.64612 15.1006L6.03353 16.9809L5.31543 15.5132L6.64612 15.1006Z" fill="#070809"/>
<path d="M7.75444 15.6533L6.0332 16.9809L6.64579 15.1006L7.75444 15.6533Z" fill="#0C0C10"/>
<path d="M9.1056 17.0517L7.75444 15.6533L6.0332 16.9809L9.1056 17.0517Z" fill="#110F16"/>
<path d="M9.18951 15.2124L9.10605 17.0517L7.75488 15.6533L9.18951 15.2124Z" fill="#15121E"/>
<path d="M8.10462 14.8549L7.75502 15.6533L7.4873 14.1431L8.10462 14.8549Z" fill="#1F1E2C"/>
<path d="M9.18951 15.2123L8.10448 14.8549L7.75488 15.6533L9.18951 15.2123Z" fill="#1B1926"/>
<path d="M8.4289 13.9258L9.24148 14.3903L8.10449 14.8549L8.4289 13.9258Z" fill="#23242E"/>
<path d="M9.18952 15.2124L9.24148 14.3904L8.10449 14.8549L9.18952 15.2124Z" fill="#221C2F"/>
<path d="M10.2314 16.2187L9.18893 15.2124L9.10547 17.0517C9.10547 17.0517 9.57633 16.8092 10.2314 16.2187Z" fill="#13121A"/>
<path d="M10.8823 15.3163L9.18945 15.2124L10.232 16.2187C10.232 16.2187 10.4698 16.088 10.8823 15.3163Z" fill="#0E0D17"/>
<path d="M10.8066 13.4266L11.7027 13.3101L11.3326 14.4707L10.8066 13.4266Z" fill="#403C53"/>
<path d="M10.9531 13.0045L10.8066 13.4266L11.7027 13.31L10.9531 13.0045Z" fill="#2F2E39"/>
<path d="M10.2725 14.044L10.8063 13.4266L11.3323 14.4707L10.2725 14.044Z" fill="#4C495F"/>
<path d="M10.8825 15.3164L10.2715 14.0439L11.3313 14.4707C11.3329 14.4707 11.2022 14.8833 10.8825 15.3164Z" fill="#261F33"/>
<path d="M9.24142 14.3904L10.2729 14.0439L9.18945 15.2124L9.24142 14.3904Z" fill="#191526"/>
<path d="M10.8823 15.3164L9.18945 15.2124L10.2729 14.0439L10.8823 15.3164Z" fill="#11101F"/>
<path d="M9.38965 12.4676L9.96759 12.4077L10.355 12.7164L9.97862 12.9526L9.38965 12.4676Z" fill="#D6CEE7"/>
<path d="M9.3252 12.0881L9.38976 12.4676L9.96771 12.4077L10.0858 12.1715L9.82283 11.9999L9.3252 12.0881Z" fill="#0B0B12"/>
<path d="M10.9534 13.0046L11.0809 12.3873L10.6904 11.7416C10.6904 11.7416 10.2778 11.3747 10.0054 11.3668C9.73292 11.3589 9.47623 11.5636 9.47623 11.5636L8.76758 12.1967V12.4502L8.78018 12.6644L8.78647 12.74C8.78647 12.74 9.10458 12.1006 9.53292 11.8203C9.96126 11.54 10.5439 12.0314 10.7061 12.3369C10.8935 12.6817 10.9534 13.0046 10.9534 13.0046Z" fill="#050607"/>
<path d="M9.38943 12.4676L9.08549 13.0613L8.91699 12.6487C8.91699 12.6487 9.17526 12.0991 9.31856 11.9999L9.38943 12.4676Z" fill="#1D1A39"/>
<path d="M10.8067 13.4265C10.8067 13.4265 10.5453 12.4077 10.0854 12.1714L9.80041 12.0029L9.3264 12.0864L8.91853 12.647L8.89648 12.5478L9.09963 12.2234L9.3201 11.9337L9.75789 11.6565L10.298 11.8565C10.298 11.8565 10.8744 12.2707 10.9579 13.0045L10.8067 13.4265Z" fill="#5D5A71"/>
<path d="M8.76915 12.1951L8.29199 13.0612L8.42742 13.9258L9.24001 14.3903L10.2715 14.0439C10.2715 14.0439 9.76441 13.9935 9.34395 13.7777C8.91561 13.5573 8.85261 13.3147 8.81167 12.9888C8.76443 12.6045 8.76915 12.1951 8.76915 12.1951Z" fill="#0B0B0E"/>
<path d="M10.0859 12.1715L9.96777 12.4077L10.3567 12.7164L10.0654 12.8991L10.8071 13.4266C10.8071 13.4266 10.6528 12.8282 10.4937 12.5794C10.2733 12.2329 10.0859 12.1715 10.0859 12.1715Z" fill="#1B1731"/>
<path d="M7.27734 6.23453L11.3324 3.9259V7.29121L7.27734 6.23453Z" fill="#E1E1E0"/>
<path d="M14.5534 3.99047L11.333 3.9259V7.29121L14.5534 3.99047Z" fill="#E0E0DE"/>
<path d="M7.6301 2.43616L7.27734 6.23453L11.3324 3.9259L7.6301 2.43616Z" fill="#E0DFDD"/>
<path d="M4.57024 5.44873L7.27728 6.23454L2.32617 8.70222L4.57024 5.44873Z" fill="#E1E1E0"/>
<path d="M7.63011 2.43616L6.50887 3.30229L4.57031 5.44872L7.27736 6.23453L7.63011 2.43616Z" fill="#E1E1E0"/>
<path d="M21.6368 2.51648L22.0053 6.23454L17.7754 3.99048L21.6368 2.51648Z" fill="#E0DFDD"/>
<path d="M24.6017 5.46448L26.7969 8.70223L22.0049 6.23455L24.6017 5.46448Z" fill="#E1E1E0"/>
<path d="M21.6367 2.51648L22.791 3.42986L24.602 5.46447L22.0052 6.23454L21.6367 2.51648Z" fill="#DFDFDE"/>
<path d="M14.5534 3.99048V7.53216L11.333 7.29122L14.5534 3.99048Z" fill="#DAD9D7"/>
<path d="M17.9354 7.35579L14.5527 3.99048V7.53216L17.9354 7.35579Z" fill="#DBDBD9"/>
<path d="M2.32617 8.70227L4.26473 12.7731L5.46786 9.69596L2.32617 8.70227Z" fill="#D1D0D1"/>
<path d="M7.5339 12.773L5.46778 9.69592L4.26465 12.773H7.5339Z" fill="#D1CFD0"/>
<path d="M23.6885 9.69596L25.1467 12.7731L26.7971 8.70227L23.6885 9.69596Z" fill="#D1D0D1"/>
<path d="M21.6416 12.7809L23.6888 9.69592L25.1471 12.773L21.6416 12.7809Z" fill="#D1CFD0"/>
<path d="M25.1465 12.7731L26.7969 16.5069L28.0472 12.6124L25.1465 12.7731Z" fill="#C8C6CC"/>
<path d="M23.8604 15.5226L25.1469 12.7731L26.7973 16.5069L23.8604 15.5226Z" fill="#CAC8C8"/>
<path d="M9.10547 10.4645L10.1464 10.9196L10.4992 10.1763L9.10547 10.4645Z" fill="#403B4E"/>
<path d="M9.51806 11.0218L9.10547 10.4644L10.1464 10.9195L9.51806 11.0218Z" fill="#393445"/>
<path d="M9.10572 10.4644L8.76871 12.195L8.47266 11.3951L9.10572 10.4644Z" fill="#27242A"/>
<path d="M7.53418 12.7731L8.10425 11.9369L8.29165 13.0613L7.53418 12.7731Z" fill="#1A1421"/>
<path d="M8.76905 12.1952L8.10449 11.9369L8.29189 13.0613L8.76905 12.1952Z" fill="#0E0D12"/>
<path d="M8.47299 11.3951L8.10449 11.9369L8.76905 12.1951L8.47299 11.3951Z" fill="#21202C"/>
<path d="M9.51855 11.0221L10.0075 11.3675L10.1478 10.9196L9.51855 11.0221Z" fill="#443E52"/>
<path d="M10.6919 11.7416L10.147 10.9196L10.0068 11.3668C10.0068 11.3668 10.262 11.3306 10.6919 11.7416Z" fill="#383143"/>
<path d="M7.48676 14.1431L6.83008 13.499L7.53401 12.7731L7.48676 14.1431Z" fill="#252632"/>
<path d="M9.75488 11.6565L9.79904 12.0035L10.0861 12.1722L10.2943 11.8568L9.75488 11.6565Z" fill="#6F6783"/>
<path d="M9.3248 12.0881V11.9369L9.13898 12.1857L8.9248 12.6314L9.3248 12.0881Z" fill="#6F6783"/>
<path d="M9.38889 12.4675L9.08496 13.0612L9.1952 13.5006L9.53535 13.7226L10.0031 13.8502H10.3164L10.8062 13.4266L10.0645 12.899L9.97786 12.9526L9.38889 12.4675Z" fill="#0D0C16"/>
<path d="M10.5654 12.7148L10.8079 12.499C10.8079 12.499 10.9355 12.7463 10.9544 13.0045L10.8079 13.4266C10.8064 13.4266 10.6221 12.7888 10.5654 12.7148Z" fill="#4A4460"/>
<path d="M8.89533 12.5494C8.89533 12.5494 8.84959 12.6236 8.8354 12.6472C8.8212 12.6709 8.78809 12.7403 8.78809 12.7403C8.78809 12.7403 8.81016 13.0762 8.83855 13.1503L9.08616 13.062L8.9253 12.6314L8.89533 12.5494Z" fill="#241F43"/>
<path d="M8.83789 13.1496L9.0855 13.0613L9.21167 13.4682L9.12493 13.6401C9.12493 13.6401 8.90255 13.525 8.83789 13.1496Z" fill="#777095"/>
<path d="M9.61003 13.8911C9.61003 13.8911 9.28248 13.7919 9.125 13.6392L9.21161 13.4675L9.54389 13.6912L9.94546 13.773L9.61003 13.8911Z" fill="#A1A0B9"/>
<path d="M10.2724 14.0438C10.2724 14.0438 9.92591 14.0234 9.60938 13.8911L9.9448 13.7714C9.9448 13.7714 10.3416 13.7809 10.3857 13.7588C10.4314 13.7352 10.8046 13.4281 10.8046 13.4281L10.2724 14.0438Z" fill="#B7B2D9"/>
<path d="M13.2822 25.069L14.5609 25.0705V27.0563L13.2822 25.069Z" fill="#99999B"/>
<path d="M16.0392 24.5792L15.8408 25.069L17.6062 24.4343L16.0392 24.5792Z" fill="#1D2724"/>
<path d="M15.4786 21.8911L15.3432 20.521L14.5605 21.5698L15.4786 21.8911Z" fill="#736E84"/>
<path d="M16.4876 21.269L15.3428 20.521L15.4782 21.8911L16.4876 21.269Z" fill="#615C71"/>
<path d="M16.3475 20.5604L15.3428 20.521L16.4876 21.269L16.3475 20.5604Z" fill="#504B59"/>
<path d="M17.4217 20.7856L16.4878 21.2691L16.3477 20.5604L17.4217 20.7856Z" fill="#3C3943"/>
<path d="M17.8221 20.6249L17.3135 21.5981L17.4221 20.7855L17.8221 20.6249Z" fill="#030505"/>
<path d="M16.4883 21.269L17.3135 21.5981L17.4221 20.7855L16.4883 21.269Z" fill="#201C27"/>
<path d="M16.2568 22.2832L16.4883 21.269L17.3135 21.5982L16.2568 22.2832Z" fill="#110E16"/>
<path d="M17.8218 20.6249L17.3131 21.5981L16.2564 22.2831L15.7305 23.0044L16.5084 22.3871L17.4013 21.8705L17.8218 20.6249Z" fill="#5C5B62"/>
<path d="M17.9824 21.3461L17.8217 20.6249L17.4013 21.8705L16.5084 22.3871L15.584 23.0973L16.6438 22.5398L17.5414 22.0422L17.9824 21.3461Z" fill="#2A292E"/>
<path d="M16.2565 22.2832L15.4785 21.8911L16.488 21.269L16.2565 22.2832Z" fill="#0C0E10"/>
<path d="M15.0771 22.6139L15.5842 23.0973L14.5605 23.7131L15.0771 22.6139Z" fill="#030405"/>
<path d="M15.5842 23.0974L15.0267 24.0706L14.5605 23.7132L15.5842 23.0974Z" fill="#4C4D52"/>
<path d="M16.039 24.5792L15.0264 24.0705L17.0563 23.5446L16.039 24.5792Z" fill="#5A5F64"/>
<path d="M15.5838 23.0974L17.0563 23.5446L15.0264 24.0706L15.5838 23.0974Z" fill="#696D73"/>
<path d="M14.5605 24.5209L15.0267 24.0706L16.0393 24.5792L14.5605 24.5209Z" fill="#3B3B41"/>
<path d="M15.8408 25.069L14.5605 24.521V25.0706L15.8408 25.069Z" fill="#181915"/>
<path d="M17.6062 24.4343L16.0393 24.5792L14.5605 24.5209L15.8408 25.069L17.6062 24.4343Z" fill="#27292A"/>
<path d="M17.0564 23.5446L17.606 24.4343L16.0391 24.5792L17.0564 23.5446Z" fill="#73767D"/>
<path d="M16.784 22.4612L17.0564 23.5446L15.584 23.0974L15.7304 23.0045L16.784 22.4612Z" fill="#7D8187"/>
<path d="M17.9829 21.3462L18.1987 22.9635L17.542 22.0422L17.9829 21.3462Z" fill="#ACADB7"/>
<path d="M16.7842 22.4611L17.5416 22.0422L18.1983 22.9635L16.7842 22.4611Z" fill="#AEB6C0"/>
<path d="M17.0566 23.5446L18.1983 22.9635L16.7842 22.4612L17.0566 23.5446Z" fill="#9EA2AC"/>
<path d="M17.9824 21.3462L18.1982 22.9635L19.921 23.3651L17.9824 21.3462Z" fill="#A0A3A9"/>
<path d="M19.0077 23.8501L19.9211 23.3651L18.1982 22.9635L19.0077 23.8501Z" fill="#7C868A"/>
<path d="M17.0566 23.5446L18.1984 22.9635L19.0078 23.8501L17.0566 23.5446Z" fill="#A7A9B5"/>
<path d="M17.6062 24.4343L19.0078 23.8501L17.0566 23.5446L17.6062 24.4343Z" fill="#94969E"/>
<path d="M15.8408 25.069L17.6455 24.9493L18.7148 24.406L19.9211 23.3651L19.0077 23.8501L17.6062 24.4344L15.8408 25.069Z" fill="#080A0B"/>
<path d="M16.2564 22.2832L16.5084 22.3871L15.584 23.0974L16.2564 22.2832Z" fill="#2A242D"/>
<path d="M14.5653 22.7493L14.5605 21.5698L15.3416 20.521C15.3416 20.521 14.9527 20.4769 14.5605 20.4769V21.5824" fill="#696379"/>
<path d="M14.5605 23.7131V24.521L15.0267 24.0706L14.5605 23.7131Z" fill="#333235"/>
<path d="M19.9218 23.3651L19.4424 23.619V23.7783L19.9218 23.3651Z" fill="#535B5C"/>
<path d="M19.0075 23.8501L18.7461 24.3793L19.4421 23.7777V23.6187L19.0075 23.8501Z" fill="#212D2D"/>
<path d="M17.6455 24.9493L19.0077 23.8501L18.7463 24.3792L17.6455 24.9493Z" fill="#0F1917"/>
<path d="M16.2614 22.28L15.5842 23.0973L15.0771 22.6139L16.2614 22.28Z" fill="#171618"/>
<path d="M14.5605 23.7131V22.7509L15.0771 22.6139L14.8409 23.1225L14.5605 23.7131Z" fill="#0B0C0F"/>
<path d="M16.0393 24.5793L15.8408 25.069L14.5605 24.521L16.0393 24.5793Z" fill="#26262D"/>
<path d="M15.0771 22.6139L15.4787 21.8911L16.2567 22.2832L15.0771 22.6139Z" fill="#030405"/>
<path d="M14.5605 21.5698L15.0771 22.6139L15.4786 21.8911L14.5605 21.5698Z" fill="#0C0E10"/>
<path d="M14.5605 21.5698V22.7509L15.0771 22.6139L14.5605 21.5698Z" fill="#030405"/>
<path d="M13.6445 21.8911L13.78 20.521L14.5611 21.5698L13.6445 21.8911Z" fill="#736E84"/>
<path d="M12.6348 21.269L13.7796 20.521L13.6442 21.8911L12.6348 21.269Z" fill="#615C71"/>
<path d="M12.7749 20.5604L13.7796 20.521L12.6348 21.269L12.7749 20.5604Z" fill="#504B59"/>
<path d="M11.7012 20.7856L12.635 21.2691L12.7752 20.5604L11.7012 20.7856Z" fill="#3C3943"/>
<path d="M11.3018 20.6249L11.8104 21.5981L11.7018 20.7855L11.3018 20.6249Z" fill="#030505"/>
<path d="M12.635 21.269L11.8098 21.5981L11.7012 20.7855L12.635 21.269Z" fill="#201C27"/>
<path d="M12.8662 22.2832L12.6348 21.269L11.8096 21.5982L12.8662 22.2832Z" fill="#110E16"/>
<path d="M11.3018 20.6249L11.8104 21.5981L12.8671 22.2831L13.3931 23.0044L12.6151 22.3871L11.7222 21.8705L11.3018 20.6249Z" fill="#5C5B62"/>
<path d="M11.1406 21.3461L11.3013 20.6249L11.7217 21.8705L12.6146 22.3871L13.539 23.0973L12.4792 22.5398L11.5816 22.0422L11.1406 21.3461Z" fill="#2A292E"/>
<path d="M12.8663 22.2832L13.6442 21.8911L12.6348 21.269L12.8663 22.2832Z" fill="#0C0E10"/>
<path d="M14.0461 22.6139L13.5391 23.0973L14.5611 23.7131L14.0461 22.6139Z" fill="#030405"/>
<path d="M13.5391 23.0974L14.0965 24.0706L14.5611 23.7132L13.5391 23.0974Z" fill="#4C4D52"/>
<path d="M13.0837 24.5792L14.0963 24.0705L12.0664 23.5446L13.0837 24.5792Z" fill="#5A5F64"/>
<path d="M13.5388 23.0974L12.0664 23.5446L14.0963 24.0706L13.5388 23.0974Z" fill="#696D73"/>
<path d="M14.5611 24.5209L14.0966 24.0706L13.084 24.5792L14.5611 24.5209Z" fill="#3B3B41"/>
<path d="M13.2822 25.069L14.5609 24.521V25.0706L13.2822 25.069Z" fill="#181915"/>
<path d="M11.5166 24.4343L13.0835 24.5792L14.5607 24.5209L13.2819 25.069L11.5166 24.4343Z" fill="#27292A"/>
<path d="M12.0662 23.5446L11.5166 24.4343L13.0835 24.5792L12.0662 23.5446Z" fill="#73767D"/>
<path d="M12.3388 22.4612L12.0664 23.5446L13.5388 23.0974L13.3924 23.0045L12.3388 22.4612Z" fill="#7D8187"/>
<path d="M11.1405 21.3462L10.9248 22.9635L11.5815 22.0422L11.1405 21.3462Z" fill="#ACADB7"/>
<path d="M12.339 22.4611L11.5815 22.0422L10.9248 22.9635L12.339 22.4611Z" fill="#AEB6C0"/>
<path d="M12.0665 23.5446L10.9248 22.9635L12.339 22.4612L12.0665 23.5446Z" fill="#9EA2AC"/>
<path d="M11.1407 21.3462L10.925 22.9635L9.20215 23.3651L11.1407 21.3462Z" fill="#A0A3A9"/>
<path d="M10.1155 23.8501L9.20215 23.3651L10.925 22.9635L10.1155 23.8501Z" fill="#7C868A"/>
<path d="M12.0664 23.5446L10.9247 22.9635L10.1152 23.8501L12.0664 23.5446Z" fill="#A7A9B5"/>
<path d="M11.5168 24.4343L10.1152 23.8501L12.0664 23.5446L11.5168 24.4343Z" fill="#94969E"/>
<path d="M13.2824 25.069L11.4777 24.9493L10.4084 24.406L9.20215 23.3651L10.1155 23.8501L11.5171 24.4344L13.2824 25.069Z" fill="#080A0B"/>
<path d="M12.8662 22.2832L12.6143 22.3871L13.5387 23.0974L12.8662 22.2832Z" fill="#2A242D"/>
<path d="M14.5566 22.7493L14.5614 21.5698L13.7803 20.521C13.7803 20.521 14.1692 20.4769 14.5614 20.4769V21.5824" fill="#696379"/>
<path d="M14.5612 23.7131V24.521L14.0967 24.0706L14.5612 23.7131Z" fill="#333235"/>
<path d="M9.20215 23.3651L9.6816 23.619V23.7783L9.20215 23.3651Z" fill="#535B5C"/>
<path d="M10.1153 23.8501L10.3767 24.3793L9.68066 23.7777V23.6187L10.1153 23.8501Z" fill="#212D2D"/>
<path d="M11.4774 24.9493L10.1152 23.8501L10.3766 24.3792L11.4774 24.9493Z" fill="#0F1917"/>
<path d="M12.8623 22.28L13.5395 23.0973L14.0465 22.6139L12.8623 22.28Z" fill="#171618"/>
<path d="M14.5609 23.7131V22.7509L14.0459 22.6139L14.2774 23.1115L14.5609 23.7131Z" fill="#0B0C0F"/>
<path d="M13.084 24.5793L13.2824 25.069L14.5611 24.521L13.084 24.5793Z" fill="#26262D"/>
<path d="M14.0457 22.6139L13.6442 21.8911L12.8662 22.2832L14.0457 22.6139Z" fill="#030405"/>
<path d="M14.5611 21.5698L14.0461 22.6139L13.6445 21.8911L14.5611 21.5698Z" fill="#0C0E10"/>
<path d="M14.5609 21.5698V22.7509L14.0459 22.6139L14.5609 21.5698Z" fill="#030405"/>
<path d="M9.96094 12.4077L9.97355 12.9534L10.3505 12.7168L9.96094 12.4077Z" fill="#9A93B0"/>
<path d="M9.60547 12.4456V12.649L9.97452 12.9534L9.9619 12.4077L9.60547 12.4456Z" fill="#B8B3CD"/>
<path d="M19.0271 10.9226L18.6759 10.1809L17.8066 10.7053L19.0271 10.9226Z" fill="#4D4B61"/>
<path d="M18.4822 11.7447L19.0271 10.9226L17.8066 10.7053L18.4822 11.7447Z" fill="#464355"/>
<path d="M18.0933 12.3919L17.8066 10.7053L18.4822 11.7447L18.0933 12.3919Z" fill="#373547"/>
<path d="M17.0566 11.1573C17.0566 11.1573 17.0803 12.0911 17.1653 12.2738C17.1653 12.2738 17.2598 11.9053 17.4094 11.4974C17.5149 11.2124 17.6425 10.9069 17.8078 10.7037L17.0566 11.1573Z" fill="#23222B"/>
<path d="M18.0932 12.3919L17.1641 12.2738C17.1641 12.2738 17.4885 10.9777 17.8066 10.7037L18.0932 12.3919Z" fill="#27252F"/>
<path d="M18.2207 13.0092L18.0932 12.3919L17.1641 12.2738C17.1641 12.2738 17.3625 13.0864 17.4711 13.3147L18.2207 13.0092Z" fill="#18171D"/>
<path d="M19.696 11.5667L19.6566 11.0266L19.0283 10.9242L18.4834 11.7462C18.4834 11.7462 18.9448 11.3793 19.1684 11.3714C19.392 11.362 19.696 11.5667 19.696 11.5667Z" fill="#454156"/>
<path d="M20.0688 10.4691L20.4058 12.1998L19.6956 11.5667L19.6562 11.025L20.0688 10.4691Z" fill="#302B3C"/>
<path d="M21.6881 14.1462L20.8818 13.0643L21.6393 12.7761L21.6881 14.1462Z" fill="#313241"/>
<path d="M23.0979 14.2832L21.6885 14.1462L21.6396 12.7761L23.0979 14.2832Z" fill="#1E1F29"/>
<path d="M23.8601 15.5163L22.5294 15.1037L21.6885 14.1462L23.0979 14.2832L23.8601 15.5163Z" fill="#121015"/>
<path d="M20.8815 13.0643L20.7461 13.9305L21.6878 14.1462L20.8815 13.0643Z" fill="#3D3C4F"/>
<path d="M21.0705 14.8595L21.6878 14.1462L20.7461 13.9304L21.0705 14.8595Z" fill="#30313D"/>
<path d="M21.4189 15.6565L22.5292 15.1037L21.6882 14.1462L21.4189 15.6565Z" fill="#181720"/>
<path d="M23.1402 16.9855L20.0693 17.0548L21.6394 18.0044L23.1402 16.9855Z" fill="#030505"/>
<path d="M22.5293 15.1036L23.1403 16.9855L23.86 15.5162L22.5293 15.1036Z" fill="#070809"/>
<path d="M21.4189 15.6564L23.1402 16.9855L22.5292 15.1036L21.4189 15.6564Z" fill="#0C0C10"/>
<path d="M20.0693 17.0548L21.4189 15.6564L23.1402 16.9855L20.0693 17.0548Z" fill="#110F16"/>
<path d="M19.9844 15.2155L20.0694 17.0548L21.419 15.6564L19.9844 15.2155Z" fill="#15121E"/>
<path d="M21.0703 14.8596L21.4183 15.6565L21.6876 14.1462L21.0703 14.8596Z" fill="#1F1E2C"/>
<path d="M19.9844 15.2155L21.071 14.8596L21.419 15.6565L19.9844 15.2155Z" fill="#1B1926"/>
<path d="M20.7468 13.9304L19.9326 14.395L21.0712 14.8595L20.7468 13.9304Z" fill="#23242E"/>
<path d="M19.9846 15.2155L19.9326 14.395L21.0712 14.8596L19.9846 15.2155Z" fill="#221C2F"/>
<path d="M18.9414 16.2233L19.9839 15.217L20.0674 17.0564C20.0689 17.0548 19.5981 16.8139 18.9414 16.2233Z" fill="#13121A"/>
<path d="M18.291 15.3194L19.9839 15.2155L18.9414 16.2217C18.9414 16.2233 18.7052 16.0926 18.291 15.3194Z" fill="#0E0D17"/>
<path d="M18.3683 13.4312L17.4707 13.3147L17.8408 14.4753L18.3683 13.4312Z" fill="#403C53"/>
<path d="M18.2203 13.0092L18.3683 13.4312L17.4707 13.3147L18.2203 13.0092Z" fill="#2F2E39"/>
<path d="M18.9022 14.047L18.3684 13.4313L17.8408 14.4754L18.9022 14.047Z" fill="#4C495F"/>
<path d="M18.2916 15.3194L18.9026 14.047L17.8428 14.4738C17.8412 14.4753 17.9719 14.8879 18.2916 15.3194Z" fill="#261F33"/>
<path d="M19.9322 14.395L18.9023 14.047L19.9842 15.2155L19.9322 14.395Z" fill="#191526"/>
<path d="M18.291 15.3194L19.9839 15.2155L18.902 14.047L18.291 15.3194Z" fill="#11101F"/>
<path d="M19.7847 12.4722L19.2083 12.4124L18.8193 12.7194L19.1957 12.9572L19.7847 12.4722Z" fill="#D6CEE7"/>
<path d="M19.8489 12.0911L19.7843 12.4722L19.208 12.4124L19.0898 12.1762L19.3528 12.0029L19.8489 12.0911Z" fill="#0B0B12"/>
<path d="M18.2203 13.0092L18.0928 12.3919L18.4833 11.7462C18.4833 11.7462 18.8959 11.3793 19.1683 11.3714C19.4408 11.3636 19.6975 11.5683 19.6975 11.5683L20.4061 12.2013V12.4549L20.3935 12.6691L20.3872 12.7446C20.3872 12.7446 20.0691 12.1053 19.6408 11.825C19.2124 11.5447 18.6298 12.036 18.4676 12.3415C18.2817 12.6848 18.2203 13.0092 18.2203 13.0092Z" fill="#050607"/>
<path d="M19.7842 12.4722L20.0881 13.0659L20.2566 12.6533C20.2566 12.6533 19.9984 12.1037 19.855 12.0045L19.7842 12.4722Z" fill="#1D1A39"/>
<path d="M18.368 13.4313C18.368 13.4313 18.6294 12.4124 19.0892 12.1762L19.3743 12.0077L19.8483 12.0912L20.2561 12.6518L20.2782 12.5526L20.075 12.2282L19.8546 11.9384L19.4168 11.6613L18.8766 11.8613C18.8766 11.8613 18.3003 12.2754 18.2168 13.0093L18.368 13.4313Z" fill="#5D5A71"/>
<path d="M20.4066 12.1998L20.8838 13.0644L20.7484 13.9305L19.9358 14.3951L18.9043 14.0486C18.9043 14.0486 19.4114 13.9982 19.8318 13.7825C20.2602 13.562 20.3232 13.3195 20.3641 12.9935C20.4114 12.6093 20.4066 12.1998 20.4066 12.1998Z" fill="#0B0B0E"/>
<path d="M19.0894 12.1761L19.2075 12.4124L18.8186 12.721L19.1099 12.9037L18.3682 13.4312C18.3682 13.4312 18.5225 12.8328 18.6815 12.584C18.902 12.2376 19.0894 12.1761 19.0894 12.1761Z" fill="#1B1731"/>
<path d="M20.0695 10.4691L19.027 10.9226L18.6758 10.1809L20.0695 10.4691Z" fill="#403B4E"/>
<path d="M19.6563 11.025L20.0689 10.4691L19.0264 10.9227L19.6563 11.025Z" fill="#393445"/>
<path d="M20.0693 10.4691L20.4063 12.1998L20.7024 11.3982L20.0693 10.4691Z" fill="#27242A"/>
<path d="M21.6393 12.7762L21.0708 11.9399L20.8818 13.0643L21.6393 12.7762Z" fill="#1A1421"/>
<path d="M20.4062 12.1998L21.0708 11.9399L20.8818 13.0643L20.4062 12.1998Z" fill="#0E0D12"/>
<path d="M20.7023 11.3982L21.0708 11.9399L20.4062 12.1998L20.7023 11.3982Z" fill="#21202C"/>
<path d="M18.4814 11.7446L19.0263 10.9226L19.1665 11.3698C19.168 11.3698 18.9129 11.3352 18.4814 11.7446Z" fill="#383143"/>
<path d="M21.6885 14.1462L22.3436 13.5037L21.6396 12.7761L21.6885 14.1462Z" fill="#252632"/>
<path d="M19.4208 11.6613L19.3751 12.0082L19.0881 12.177L18.8799 11.8615L19.4208 11.6613Z" fill="#6F6783"/>
<path d="M19.8486 12.0911V11.9399L20.036 12.1888L20.2486 12.636L19.8486 12.0911Z" fill="#6F6783"/>
<path d="M19.7839 12.4722L20.0894 13.0643L19.9792 13.5037L19.639 13.7273L19.1697 13.8548H18.8563L18.3682 13.4312L19.1099 12.9021L19.1949 12.9572L19.7839 12.4722Z" fill="#0D0C16"/>
<path d="M18.6097 12.7178L18.3672 12.5021C18.3672 12.5021 18.2396 12.7493 18.2207 13.0076L18.3672 13.4296C18.3687 13.4312 18.5514 12.7918 18.6097 12.7178Z" fill="#4A4460"/>
<path d="M20.2807 12.5525C20.2807 12.5525 20.3264 12.6266 20.3406 12.6503C20.3548 12.6739 20.3879 12.7433 20.3879 12.7433C20.3879 12.7433 20.3658 13.0793 20.3375 13.1534L20.0898 13.0651L20.2507 12.6345L20.2807 12.5525Z" fill="#241F43"/>
<path d="M20.3377 13.1527L20.09 13.0643L19.9639 13.4712L20.0506 13.6431C20.049 13.6447 20.273 13.5296 20.3377 13.1527Z" fill="#777095"/>
<path d="M19.5639 13.8942C19.5639 13.8942 19.8915 13.795 20.049 13.6422L19.9624 13.4706L19.6301 13.6942L19.2285 13.7761L19.5639 13.8942Z" fill="#A1A0B9"/>
<path d="M18.9024 14.047C18.9024 14.047 19.2488 14.0265 19.5654 13.8943L19.2299 13.7746C19.2299 13.7746 18.8331 13.784 18.789 13.762C18.7433 13.7384 18.3701 13.4313 18.3701 13.4313L18.9024 14.047Z" fill="#B7B2D9"/>
<path d="M19.2128 12.4124L19.2018 12.958L18.8232 12.7199L19.2128 12.4124Z" fill="#9A93B0"/>
<path d="M19.5702 12.4486V12.6537L19.2012 12.958L19.2122 12.4124L19.5702 12.4486Z" fill="#B8B3CD"/>
<path d="M45.2486 17.6057H44.7109L44.186 13.0229C43.9869 11.2437 43.8506 9.85627 43.7782 8.85963L40.1164 17.4812H39.6053L36.1213 8.85963C36.0692 9.76256 35.9648 10.9604 35.8072 12.4501L35.7604 12.9952L35.2897 17.6057H34.7158L35.6624 8.03442H36.3385L39.8768 16.657L43.5375 8.03442H44.2137L45.2486 17.6057Z" fill="white" stroke="white" stroke-width="0.338778"/>
<path d="M52.2933 10.3876C52.1954 8.00249 49.7932 8.01101 47.866 8.0174H47.6125C47.4773 8.0174 47.3506 8.02272 47.2324 8.04083V8.62007C47.2324 8.62007 47.2324 8.62007 47.2335 8.62007C47.2335 8.62007 47.2335 12.7482 47.2324 12.7482V13.336L47.2335 17.626H47.7552L47.7563 13.385V12.8057L47.7552 8.59451H47.8692C47.9149 8.59451 47.9618 8.59132 48.0076 8.59132C49.0766 8.59132 49.987 8.63178 50.6376 8.87987C51.2882 9.12477 51.6832 9.57943 51.7173 10.4121C51.7492 11.15 51.565 11.7314 51.1732 12.1402C50.7409 12.5896 50.053 13.008 49.1767 13.008H48.4388V13.402H49.1767C50.2138 13.402 50.9049 13.0698 51.4468 12.5055C51.9505 11.9795 52.3306 11.2863 52.2933 10.3876Z" fill="white" stroke="white" stroke-width="0.338778"/>
<defs>
<linearGradient id="paint0_linear_2151_2606" x1="14.5776" y1="0.817686" x2="14.5776" y2="33.5849" gradientUnits="userSpaceOnUse">
<stop stop-color="#E9E7E8"/>
<stop offset="0.7998" stop-color="#9C9A9C"/>
</linearGradient>
<linearGradient id="paint1_linear_2151_2606" x1="9.20153" y1="22.9622" x2="19.9222" y2="22.9622" gradientUnits="userSpaceOnUse">
<stop stop-color="#E9E7E8"/>
<stop offset="0.5011" stop-color="#333235"/>
<stop offset="1" stop-color="#A0A3A9"/>
</linearGradient>
</defs>
</svg>
