<svg width="51" height="51" viewBox="0 0 51 51" fill="none" xmlns="http://www.w3.org/2000/svg">
<circle cx="25.25" cy="25.5" r="24.5" stroke="url(#paint0_linear_1931_21347)"/>
<g clip-path="url(#clip0_1931_21347)">
<path d="M16.1597 24.0523L32.9733 17.0877C33.764 16.7602 34.6207 17.3975 34.4859 18.2129L32.187 32.1156C32.045 32.9744 30.9362 33.3028 30.3134 32.6706L26.5408 28.8404C25.8009 28.0893 25.7429 26.9333 26.4042 26.1176L29.0679 22.8317C29.2202 22.6439 28.9798 22.3968 28.7736 22.5293L23.4775 25.9346C22.5787 26.5125 21.4882 26.7502 20.4171 26.6018L16.4367 26.05C15.3463 25.8988 15.1483 24.4712 16.1597 24.0523Z" fill="url(#paint1_linear_1931_21347)"/>
</g>
<defs>
<linearGradient id="paint0_linear_1931_21347" x1="0.25" y1="25.5" x2="75.0192" y2="25.5" gradientUnits="userSpaceOnUse">
<stop stop-color="#A7843C"/>
<stop offset="0.755144" stop-color="#C8AC68"/>
<stop offset="1" stop-color="#7E673A"/>
</linearGradient>
<linearGradient id="paint1_linear_1931_21347" x1="15.5" y1="25" x2="43.9123" y2="25" gradientUnits="userSpaceOnUse">
<stop stop-color="#A7843C"/>
<stop offset="0.755144" stop-color="#C8AC68"/>
<stop offset="1" stop-color="#7E673A"/>
</linearGradient>
<clipPath id="clip0_1931_21347">
<rect width="20" height="20" fill="white" transform="translate(15.5 15)"/>
</clipPath>
</defs>
</svg>
