<svg width="51" height="51" viewBox="0 0 51 51" fill="none" xmlns="http://www.w3.org/2000/svg">
<circle cx="25.25" cy="25.5" r="24.5" stroke="url(#paint0_linear_1931_21352)"/>
<g clip-path="url(#clip0_1931_21352)">
<path d="M25.5025 15H25.4975C19.9838 15 15.5 19.485 15.5 25C15.5 27.1875 16.205 29.215 17.4038 30.8613L16.1575 34.5763L20.0013 33.3475C21.5825 34.395 23.4687 35 25.5025 35C31.0162 35 35.5 30.5137 35.5 25C35.5 19.4863 31.0162 15 25.5025 15Z" fill="url(#paint1_linear_1931_21352)"/>
<path d="M31.3213 29.1212C31.08 29.8025 30.1225 30.3675 29.3588 30.5325C28.8363 30.6437 28.1538 30.7325 25.8563 29.78C22.9175 28.5625 21.025 25.5762 20.8775 25.3825C20.7363 25.1887 19.69 23.8012 19.69 22.3662C19.69 20.9312 20.4188 20.2325 20.7125 19.9325C20.9538 19.6862 21.3525 19.5737 21.735 19.5737C21.8588 19.5737 21.97 19.58 22.07 19.585C22.3638 19.5975 22.5113 19.615 22.705 20.0787C22.9463 20.66 23.5338 22.095 23.6038 22.2425C23.675 22.39 23.7463 22.59 23.6463 22.7837C23.5525 22.9837 23.47 23.0725 23.3225 23.2425C23.175 23.4125 23.035 23.5425 22.8875 23.725C22.7525 23.8837 22.6 24.0537 22.77 24.3475C22.94 24.635 23.5275 25.5937 24.3925 26.3637C25.5088 27.3575 26.4138 27.675 26.7375 27.81C26.9788 27.91 27.2663 27.8862 27.4425 27.6987C27.6663 27.4575 27.9425 27.0575 28.2238 26.6637C28.4238 26.3812 28.6763 26.3462 28.9413 26.4462C29.2113 26.54 30.64 27.2462 30.9338 27.3925C31.2275 27.54 31.4213 27.61 31.4925 27.7337C31.5625 27.8575 31.5625 28.4387 31.3213 29.1212Z" fill="#010101"/>
</g>
<defs>
<linearGradient id="paint0_linear_1931_21352" x1="0.25" y1="25.5" x2="75.0192" y2="25.5" gradientUnits="userSpaceOnUse">
<stop stop-color="#A7843C"/>
<stop offset="0.755144" stop-color="#C8AC68"/>
<stop offset="1" stop-color="#7E673A"/>
</linearGradient>
<linearGradient id="paint1_linear_1931_21352" x1="15.5" y1="25" x2="45.4077" y2="25" gradientUnits="userSpaceOnUse">
<stop stop-color="#A7843C"/>
<stop offset="0.755144" stop-color="#C8AC68"/>
<stop offset="1" stop-color="#7E673A"/>
</linearGradient>
<clipPath id="clip0_1931_21352">
<rect width="20" height="20" fill="white" transform="translate(15.5 15)"/>
</clipPath>
</defs>
</svg>
