<svg width="50" height="50" viewBox="0 0 50 50" fill="none" xmlns="http://www.w3.org/2000/svg">
<circle cx="25" cy="25" r="24.5" fill="url(#paint0_linear_1931_21384)" stroke="url(#paint1_linear_1931_21384)"/>
<g clip-path="url(#clip0_1931_21384)">
<path d="M25.2525 14.5H25.2475C19.7338 14.5 15.25 18.985 15.25 24.5C15.25 26.6875 15.955 28.715 17.1538 30.3613L15.9075 34.0763L19.7513 32.8475C21.3325 33.895 23.2187 34.5 25.2525 34.5C30.7662 34.5 35.25 30.0137 35.25 24.5C35.25 18.9863 30.7662 14.5 25.2525 14.5Z" fill="#163332"/>
<path d="M31.0713 28.6212C30.83 29.3025 29.8725 29.8675 29.1088 30.0325C28.5863 30.1437 27.9038 30.2325 25.6063 29.28C22.6675 28.0625 20.775 25.0762 20.6275 24.8825C20.4863 24.6887 19.44 23.3012 19.44 21.8662C19.44 20.4312 20.1688 19.7325 20.4625 19.4325C20.7038 19.1862 21.1025 19.0737 21.485 19.0737C21.6088 19.0737 21.72 19.08 21.82 19.085C22.1138 19.0975 22.2613 19.115 22.455 19.5787C22.6963 20.16 23.2838 21.595 23.3538 21.7425C23.425 21.89 23.4963 22.09 23.3963 22.2837C23.3025 22.4837 23.22 22.5725 23.0725 22.7425C22.925 22.9125 22.785 23.0425 22.6375 23.225C22.5025 23.3837 22.35 23.5537 22.52 23.8475C22.69 24.135 23.2775 25.0937 24.1425 25.8637C25.2588 26.8575 26.1638 27.175 26.4875 27.31C26.7288 27.41 27.0163 27.3862 27.1925 27.1987C27.4163 26.9575 27.6925 26.5575 27.9738 26.1637C28.1738 25.8812 28.4263 25.8462 28.6913 25.9462C28.9613 26.04 30.39 26.7462 30.6838 26.8925C30.9775 27.04 31.1713 27.11 31.2425 27.2337C31.3125 27.3575 31.3125 27.9387 31.0713 28.6212Z" fill="url(#paint2_linear_1931_21384)"/>
</g>
<defs>
<linearGradient id="paint0_linear_1931_21384" x1="0" y1="25" x2="74.7692" y2="25" gradientUnits="userSpaceOnUse">
<stop stop-color="#A7843C"/>
<stop offset="0.755144" stop-color="#C8AC68"/>
<stop offset="1" stop-color="#7E673A"/>
</linearGradient>
<linearGradient id="paint1_linear_1931_21384" x1="0" y1="25" x2="74.7692" y2="25" gradientUnits="userSpaceOnUse">
<stop stop-color="#A7843C"/>
<stop offset="0.755144" stop-color="#C8AC68"/>
<stop offset="1" stop-color="#7E673A"/>
</linearGradient>
<linearGradient id="paint2_linear_1931_21384" x1="19.44" y1="24.5864" x2="37.1497" y2="24.5864" gradientUnits="userSpaceOnUse">
<stop stop-color="#A7843C"/>
<stop offset="0.755144" stop-color="#C8AC68"/>
<stop offset="1" stop-color="#7E673A"/>
</linearGradient>
<clipPath id="clip0_1931_21384">
<rect width="20" height="20" fill="white" transform="translate(15.25 14.5)"/>
</clipPath>
</defs>
</svg>
